Crickx.sfdir

StartChar: exclam
Encoding: 33 33 184
Width: 328
Flags: W
LayerCount: 2
Fore
SplineSet
210 178 m 1,0,-1
 73 178 l 1,1,-1
 139 643 l 1,2,-1
 278 660 l 1,3,-1
 210 178 l 1,0,-1
180 0 m 1,4,-1
 45 -6 l 1,5,-1
 68 127 l 1,6,-1
 199 130 l 1,7,-1
 180 0 l 1,4,-1
EndSplineSet
EndChar

StartChar: quotedbl
Encoding: 34 34 183
Width: 449
Flags: W
LayerCount: 2
Fore
SplineSet
171 359 m 1,0,1
 121 354 121 354 88 358 c 1,2,-1
 112 475 l 1,3,4
 92 475 92 475 80 476 c 128,-1,5
 68 477 68 477 57 477 c 1,6,7
 58 525 58 525 72 622 c 1,8,9
 118 623 118 623 220 630 c 1,10,11
 215 570 215 570 199 494 c 0,12,13
 174 377 174 377 171 359 c 1,0,1
354 359 m 1,14,15
 304 354 304 354 271 358 c 1,16,-1
 294 475 l 1,17,18
 274 475 274 475 264 476 c 0,19,20
 251 477 251 477 239 477 c 1,21,22
 241 525 241 525 255 622 c 1,23,24
 300 623 300 623 402 630 c 1,25,26
 398 570 398 570 381 494 c 1,27,28
 357 377 357 377 354 359 c 1,14,15
EndSplineSet
EndChar

StartChar: numbersign
Encoding: 35 35 4
Width: 574
Flags: W
LayerCount: 2
Fore
SplineSet
258 254 m 1,0,-1
 253 183 l 1,1,-1
 322 190 l 1,2,-1
 328 259 l 1,3,-1
 258 254 l 1,0,-1
160 456 m 1,4,-1
 274 467 l 1,5,-1
 267 371 l 1,6,-1
 339 378 l 1,7,-1
 347 456 l 1,8,-1
 460 467 l 1,9,-1
 454 389 l 1,10,-1
 530 396 l 1,11,-1
 516 273 l 1,12,-1
 445 268 l 1,13,-1
 441 201 l 1,14,-1
 530 209 l 1,15,-1
 516 86 l 1,16,-1
 432 80 l 1,17,-1
 427 12 l 1,18,-1
 304 -3 l 1,19,-1
 311 71 l 1,20,-1
 244 66 l 1,21,-1
 240 12 l 1,22,-1
 117 -3 l 1,23,-1
 123 57 l 1,24,-1
 61 53 l 1,25,-1
 72 166 l 1,26,-1
 134 172 l 1,27,-1
 141 245 l 1,28,-1
 61 239 l 1,29,-1
 72 353 l 1,30,-1
 151 360 l 1,31,-1
 160 456 l 1,4,-1
EndSplineSet
EndChar

StartChar: dollar
Encoding: 36 36 5
Width: 476
Flags: W
LayerCount: 2
Fore
SplineSet
124 7 m 1,0,1
 83 19 83 19 58 42 c 0,2,3
 37 62 37 62 37 77 c 0,4,5
 37 90 37 90 56 210 c 1,6,-1
 177 209 l 1,7,8
 171 187 171 187 170 174 c 1,9,10
 170 136 170 136 207 136 c 0,11,12
 261 136 261 136 261 223 c 1,13,14
 252 254 252 254 170 309 c 0,15,16
 91 361 91 361 90 389 c 1,17,18
 94 425 94 425 110 503 c 1,19,20
 129 568 129 568 221 604 c 1,21,-1
 232 688 l 1,22,-1
 371 705 l 1,23,-1
 355 608 l 1,24,25
 427 583 427 583 440 525 c 0,26,27
 446 494 446 494 439 432 c 1,28,-1
 322 428 l 1,29,30
 320 477 320 477 278 482 c 1,31,32
 255 482 255 482 238.5 463.5 c 128,-1,33
 222 445 222 445 222 430 c 0,34,35
 222 397 222 397 265 370 c 128,-1,36
 308 343 308 343 350 317 c 1,37,38
 399 277 399 277 409 217 c 1,39,40
 404 162 404 162 377 93 c 0,41,42
 368 69 368 69 339 46 c 0,43,44
 304 19 304 19 258 7 c 1,45,-1
 247 -66 l 1,46,-1
 113 -74 l 1,47,-1
 124 7 l 1,0,1
EndSplineSet
EndChar

StartChar: percent
Encoding: 37 37 6
Width: 625
Flags: W
LayerCount: 2
Fore
SplineSet
578 591 m 1,0,1
 432 354 432 354 353 237 c 1,2,3
 389 254 389 254 435 254 c 0,4,5
 480 254 480 254 517 222 c 0,6,7
 563 183 563 183 563 116 c 0,8,9
 563 67 563 67 518 27.5 c 128,-1,10
 473 -12 473 -12 418 -12 c 0,11,12
 371 -12 371 -12 329 25 c 0,13,14
 283 67 283 67 283 127 c 0,15,16
 283 131 283 131 284 135 c 1,17,18
 242 76 242 76 172 -23 c 1,19,-1
 50 42 l 1,20,-1
 307 402 l 1,21,22
 272 381 272 381 244 381 c 0,23,24
 197 381 197 381 155 418 c 0,25,26
 110 458 110 458 110 513 c 0,27,28
 110 582 110 582 170 619 c 0,29,30
 215 647 215 647 261 647 c 0,31,32
 304 647 304 647 341 618 c 0,33,34
 386 582 386 582 389 519 c 1,35,36
 434 586 434 586 475 647 c 1,37,-1
 578 591 l 1,0,1
254 549 m 0,38,39
 224 549 224 549 224 523 c 0,40,41
 224 495 224 495 255 495 c 0,42,43
 262 495 262 495 270.5 505 c 128,-1,44
 279 515 279 515 279 522 c 0,45,46
 279 549 279 549 254 549 c 0,38,39
429 139 m 0,47,48
 400 139 400 139 400 114 c 0,49,50
 400 85 400 85 430 85 c 0,51,52
 438 85 438 85 446.5 95.5 c 128,-1,53
 455 106 455 106 455 113 c 0,54,55
 455 139 455 139 429 139 c 0,47,48
EndSplineSet
EndChar

StartChar: ampersand
Encoding: 38 38 7
Width: 590
Flags: W
LayerCount: 2
Fore
SplineSet
348 461 m 0,0,1
 348 497 348 497 304 497 c 0,2,3
 284 497 284 497 272 476 c 0,4,5
 262 460 262 460 262 441 c 1,6,7
 266 427 266 427 280 402 c 1,8,9
 348 424 348 424 348 461 c 0,0,1
113 428 m 0,10,11
 113 478 113 478 122 533 c 0,12,13
 128 572 128 572 172 605 c 0,14,15
 221 642 221 642 285 642 c 1,16,17
 328 639 328 639 360 626 c 0,18,19
 436 595 436 595 442 518 c 1,20,21
 441 484 441 484 438.5 460 c 128,-1,22
 436 436 436 436 424 412 c 0,23,24
 396 356 396 356 324 319 c 1,25,-1
 415 264 l 1,26,-1
 532 355 l 1,27,-1
 541 258 l 1,28,-1
 481 205 l 1,29,-1
 540 183 l 1,30,-1
 539 81 l 1,31,32
 484 86 484 86 400 128 c 1,33,34
 352 62 352 62 324 38 c 0,35,36
 274 -5 274 -5 210 -5 c 0,37,38
 33 -5 33 -5 33 174 c 0,39,40
 33 299 33 299 151 357 c 1,41,42
 113 406 113 406 113 428 c 0,10,11
219 241 m 1,43,44
 203 217 203 217 203 195 c 0,45,46
 203 162 203 162 235 162 c 0,47,48
 268 162 268 162 295 190 c 1,49,50
 271 205 271 205 219 241 c 1,43,44
EndSplineSet
EndChar

StartChar: quotesingle
Encoding: 39 39 8
Width: 258
Flags: W
LayerCount: 2
Fore
SplineSet
171 359 m 1,0,1
 121 354 121 354 88 358 c 1,2,-1
 112 475 l 1,3,4
 92 475 92 475 80 476 c 128,-1,5
 68 477 68 477 57 477 c 1,6,7
 58 525 58 525 72 622 c 1,8,9
 118 623 118 623 220 630 c 1,10,11
 215 570 215 570 199 494 c 0,12,13
 174 377 174 377 171 359 c 1,0,1
EndSplineSet
EndChar

StartChar: parenleft
Encoding: 40 40 9
Width: 357
Flags: W
LayerCount: 2
Fore
SplineSet
330 727 m 1,0,-1
 311 580 l 1,1,2
 290 576 290 576 255 544 c 0,3,4
 216 508 216 508 202 472 c 0,5,6
 168 389 168 389 168 315 c 0,7,8
 168 276 168 276 179 220 c 0,9,10
 188 171 188 171 221 126 c 0,11,12
 244 94 244 94 262 82 c 1,13,-1
 239 -56 l 1,14,15
 193 -40 193 -40 144 9 c 1,16,17
 84 72 84 72 60 153 c 0,18,19
 35 239 35 239 35 315 c 0,20,21
 35 430 35 430 96 558 c 1,22,23
 172 699 172 699 330 727 c 1,0,-1
EndSplineSet
EndChar

StartChar: parenright
Encoding: 41 41 10
Width: 394
Flags: W
LayerCount: 2
Fore
SplineSet
25 -47 m 1,0,-1
 49 99 l 1,1,2
 71 102 71 102 108.5 134.5 c 128,-1,3
 146 167 146 167 162 204 c 0,4,5
 201 291 201 291 201 372 c 0,6,7
 201 406 201 406 194 454.5 c 128,-1,8
 187 503 187 503 155 550 c 0,9,10
 133 583 133 583 115 596 c 1,11,-1
 144 732 l 1,12,13
 189 715 189 715 236 664 c 1,14,15
 294 599 294 599 315 517 c 0,16,17
 334 439 334 439 334 372 c 0,18,19
 334 248 334 248 265 113 c 1,20,21
 184 -24 184 -24 25 -47 c 1,0,-1
EndSplineSet
EndChar

StartChar: asterisk
Encoding: 42 42 11
Width: 523
Flags: W
LayerCount: 2
Fore
SplineSet
95 233 m 1,0,-1
 175 239 l 1,1,-1
 121 311 l 1,2,-1
 213 376 l 1,3,-1
 274 293 l 1,4,-1
 335 386 l 1,5,-1
 427 327 l 1,6,-1
 378 258 l 1,7,-1
 471 263 l 1,8,-1
 450 161 l 1,9,-1
 378 155 l 1,10,-1
 419 94 l 1,11,-1
 331 20 l 1,12,-1
 275 105 l 1,13,-1
 218 12 l 1,14,-1
 124 72 l 1,15,-1
 169 134 l 1,16,17
 124 131 124 131 79 128 c 1,18,19
 87 181 87 181 95 233 c 1,0,-1
EndSplineSet
EndChar

StartChar: plus
Encoding: 43 43 12
Width: 523
Flags: W
LayerCount: 2
Fore
SplineSet
333 225 m 1,0,-1
 455 229 l 1,1,-1
 429 111 l 1,2,-1
 314 108 l 1,3,-1
 292 -5 l 1,4,-1
 163 -11 l 1,5,-1
 190 106 l 1,6,-1
 50 105 l 1,7,-1
 79 210 l 1,8,-1
 208 215 l 1,9,-1
 227 329 l 1,10,-1
 350 335 l 1,11,-1
 333 225 l 1,0,-1
EndSplineSet
EndChar

StartChar: comma
Encoding: 44 44 13
Width: 281
Flags: W
LayerCount: 2
Fore
SplineSet
210 -48 m 1,0,1
 196 -88 196 -88 180 -110 c 1,2,3
 134 -116 134 -116 107 -113 c 1,4,-1
 131 5 l 1,5,6
 114 4 114 4 48 4 c 1,7,8
 49 57 49 57 57 152 c 1,9,10
 105 153 105 153 210 160 c 1,11,12
 208 138 208 138 213 105 c 0,13,14
 219 57 219 57 220 49 c 1,15,16
 217 -13 217 -13 210 -48 c 1,0,1
EndSplineSet
EndChar

StartChar: period
Encoding: 46 46 15
Width: 262
Flags: W
LayerCount: 2
Fore
SplineSet
200 7 m 1,0,-1
 47 -4 l 1,1,-1
 67 141 l 1,2,-1
 219 146 l 1,3,-1
 200 7 l 1,0,-1
EndSplineSet
EndChar

StartChar: slash
Encoding: 47 47 16
Width: 494
Flags: W
LayerCount: 2
Fore
SplineSet
188 -22 m 1,0,-1
 48 26 l 1,1,-1
 299 648 l 1,2,-1
 440 614 l 1,3,-1
 188 -22 l 1,0,-1
EndSplineSet
EndChar

StartChar: zero
Encoding: 48 48 17
Width: 482
Flags: W
LayerCount: 2
Fore
SplineSet
464 499 m 0,0,1
 463 477 463 477 446 350 c 0,2,3
 427 206 427 206 415 135 c 0,4,5
 409 100 409 100 400 82 c 0,6,7
 378 40 378 40 307 5 c 0,8,9
 243 -27 243 -27 203 -27 c 0,10,11
 147 -27 147 -27 96 3 c 0,12,13
 37 39 37 39 37 95 c 0,14,15
 37 124 37 124 74 437 c 1,16,17
 128 615 128 615 320 625 c 1,18,19
 373 625 373 625 417 592 c 0,20,21
 468 554 468 554 464 499 c 0,0,1
271 443 m 0,22,23
 257 443 257 443 244 429.5 c 128,-1,24
 231 416 231 416 229 400 c 0,25,26
 212 270 212 270 204 183 c 0,27,28
 201 157 201 157 228 157 c 1,29,30
 236 158 236 158 242 159 c 0,31,32
 258 163 258 163 263 173 c 1,33,-1
 300 436 l 1,34,35
 289 442 289 442 271 443 c 0,22,23
EndSplineSet
EndChar

StartChar: one
Encoding: 49 49 18
Width: 441
Flags: W
LayerCount: 2
Fore
SplineSet
273 -18 m 1,0,1
 220 -18 220 -18 102 -17 c 1,2,-1
 186 395 l 1,3,-1
 42 348 l 1,4,-1
 80 496 l 1,5,6
 229 603 229 603 249 620 c 1,7,-1
 413 615 l 1,8,9
 342 223 342 223 273 -18 c 1,0,1
EndSplineSet
EndChar

StartChar: two
Encoding: 50 50 19
Width: 538
Flags: W
LayerCount: 2
Fore
SplineSet
422 312 m 1,0,1
 378 270 378 270 335 228 c 1,2,3
 272 161 272 161 276 129 c 1,4,5
 297 124 297 124 434 148 c 1,6,-1
 400 -14 l 1,7,-1
 21 -10 l 1,8,9
 58 167 58 167 215 312 c 1,10,11
 253 342 253 342 292 372 c 1,12,13
 343 414 343 414 343 442 c 0,14,15
 343 456 343 456 328 466 c 128,-1,16
 313 476 313 476 303 476 c 0,17,18
 257 476 257 476 229 393 c 1,19,-1
 107 468 l 1,20,21
 153 632 153 632 326 632 c 0,22,23
 395 632 395 632 442 592 c 0,24,25
 498 545 498 545 498 460 c 0,26,27
 498 390 498 390 422 312 c 1,0,1
EndSplineSet
EndChar

StartChar: three
Encoding: 51 51 20
Width: 502
Flags: W
LayerCount: 2
Fore
SplineSet
463 459 m 1,0,-1
 389 403 l 1,1,2
 441 378 441 378 441 334 c 1,3,4
 429 224 429 224 406 111 c 0,5,6
 378 -25 378 -25 184 -25 c 0,7,8
 99 -25 99 -25 65 27 c 0,9,10
 47 56 47 56 47 94 c 0,11,12
 47 103 47 103 61 192 c 1,13,-1
 194 197 l 1,14,15
 191 183 191 183 191 172 c 0,16,17
 191 140 191 140 216 137 c 1,18,19
 227 137 227 137 235 140 c 0,20,21
 256 146 256 146 261 162 c 1,22,23
 277 235 277 235 279 253 c 0,24,25
 280 270 280 270 269 280.5 c 128,-1,26
 258 291 258 291 241 291 c 0,27,28
 232 291 232 291 224 289 c 0,29,30
 203 285 203 285 188 273 c 1,31,-1
 93 357 l 1,32,-1
 232 466 l 1,33,-1
 101 454 l 1,34,-1
 125 613 l 1,35,36
 404 605 404 605 480 607 c 1,37,-1
 463 459 l 1,0,-1
EndSplineSet
EndChar

StartChar: four
Encoding: 52 52 21
Width: 548
Flags: W
LayerCount: 2
Fore
SplineSet
299 340 m 1,0,-1
 211 229 l 1,1,-1
 283 229 l 1,2,3
 291 282 291 282 299 340 c 1,0,-1
44 100 m 1,4,-1
 65 239 l 1,5,-1
 329 595 l 1,6,-1
 513 604 l 1,7,8
 456 284 456 284 452 214 c 1,9,-1
 509 214 l 1,10,-1
 491 113 l 1,11,12
 443 116 443 116 430 112 c 1,13,14
 425 92 425 92 407 -8 c 1,15,-1
 240 -18 l 1,16,17
 249 22 249 22 263 105 c 1,18,-1
 44 100 l 1,4,-1
EndSplineSet
EndChar

StartChar: five
Encoding: 53 53 22
Width: 492
Flags: W
LayerCount: 2
Fore
SplineSet
457 468 m 1,0,-1
 269 464 l 1,1,2
 259 435 259 435 258 414 c 1,3,4
 281 425 281 425 322 419 c 1,5,6
 438 407 438 407 435 309 c 1,7,-1
 410 127 l 1,8,9
 388 53 388 53 317 15 c 1,10,11
 252 -21 252 -21 165 -18 c 1,12,13
 19 -5 19 -5 29 82 c 0,14,15
 39 172 39 172 45 185 c 1,16,17
 87 195 87 195 187 195 c 1,18,19
 183 176 183 176 182 161 c 0,20,21
 181 138 181 138 210 137 c 1,22,23
 218 138 218 138 225 141 c 0,24,25
 241 148 241 148 249 166 c 1,26,-1
 270 253 l 2,27,28
 278 288 278 288 241 289 c 0,29,30
 231 289 231 289 223 285 c 0,31,32
 203 277 203 277 193 255 c 1,33,-1
 56 253 l 1,34,-1
 117 619 l 1,35,36
 290 618 290 618 474 618 c 1,37,-1
 457 468 l 1,0,-1
EndSplineSet
EndChar

StartChar: six
Encoding: 54 54 23
Width: 472
Flags: W
LayerCount: 2
Fore
SplineSet
207 171 m 1,0,1
 207 131 207 131 243 131 c 0,2,3
 289 131 289 131 289 185 c 1,4,5
 282 235 282 235 215 229 c 1,6,7
 213 209 213 209 207 171 c 1,0,1
318 322 m 1,8,9
 342 321 342 321 362 313 c 0,10,11
 410 295 410 295 425 249 c 1,12,-1
 419 206 l 1,13,-1
 407 123 l 1,14,15
 392 72 392 72 338 30 c 0,16,17
 275 -18 275 -18 195 -18 c 1,18,19
 34 -9 34 -9 39 103 c 1,20,21
 71 326 71 326 100 462 c 1,22,23
 113 542 113 542 185 579 c 0,24,25
 238 606 238 606 308 606 c 0,26,27
 394 606 394 606 431 568 c 0,28,29
 455 544 455 544 455 510 c 0,30,31
 455 497 455 497 440 407 c 1,32,-1
 315 393 l 1,33,34
 318 413 318 413 319 423 c 1,35,36
 319 458 319 458 292 458 c 0,37,38
 270 458 270 458 255 444 c 0,39,40
 243 434 243 434 241 423 c 0,41,42
 237 382 237 382 227 304 c 1,43,44
 264 318 264 318 318 322 c 1,8,9
EndSplineSet
EndChar

StartChar: seven
Encoding: 55 55 24
Width: 445
Flags: W
LayerCount: 2
Fore
SplineSet
434 470 m 1,0,-1
 159 -11 l 1,1,2
 92 -9 92 -9 26 -8 c 1,3,4
 -17 -6 -17 -6 -27 -2 c 1,5,-1
 214 452 l 1,6,-1
 62 450 l 1,7,-1
 78 610 l 1,8,-1
 439 604 l 1,9,-1
 434 470 l 1,0,-1
EndSplineSet
EndChar

StartChar: eight
Encoding: 56 56 25
Width: 476
Flags: W
LayerCount: 2
Fore
SplineSet
292 376 m 0,0,1
 306 388 306 388 306 425 c 0,2,3
 306 457 306 457 274 457 c 0,4,5
 250 457 250 457 238 438.5 c 128,-1,6
 226 420 226 420 226 399 c 0,7,8
 226 374 226 374 246 354 c 1,9,10
 287 371 287 371 292 376 c 0,0,1
416 112 m 1,11,12
 402 62 402 62 347 22 c 0,13,14
 279 -27 279 -27 180 -27 c 1,15,16
 137 -25 137 -25 106 -14 c 0,17,18
 33 12 33 12 32 76 c 1,19,20
 47 193 47 193 55 232 c 1,21,22
 58 257 58 257 111 301 c 1,23,24
 80 323 80 323 78 348 c 0,25,26
 74 417 74 417 83 462 c 1,27,28
 103 522 103 522 170 563 c 0,29,30
 231 601 231 601 290 601 c 0,31,32
 344 601 344 601 385.5 582 c 128,-1,33
 427 563 427 563 442 530 c 1,34,35
 454 483 454 483 453 455 c 0,36,37
 452 414 452 414 441 355 c 0,38,39
 433 307 433 307 387 279 c 1,40,41
 423 251 423 251 423 180 c 0,42,43
 423 146 423 146 416 112 c 1,11,12
203 215 m 0,44,45
 193 203 193 203 190 165 c 0,46,47
 189 155 189 155 199 147.5 c 128,-1,48
 209 140 209 140 220 140 c 0,49,50
 272 140 272 140 272 188 c 0,51,52
 272 199 272 199 255 233 c 1,53,54
 205 216 205 216 203 215 c 0,44,45
EndSplineSet
EndChar

StartChar: nine
Encoding: 57 57 26
Width: 486
Flags: W
LayerCount: 2
Fore
SplineSet
287 406 m 2,0,1
 290 425 290 425 278 437 c 128,-1,2
 266 449 266 449 251 449 c 0,3,4
 231 449 231 449 214.5 434 c 128,-1,5
 198 419 198 419 198 399 c 0,6,7
 198 346 198 346 243 346 c 1,8,9
 253 347 253 347 279 353 c 1,10,-1
 287 406 l 2,0,1
200 257 m 1,11,12
 121 257 121 257 86 296 c 0,13,14
 66 319 66 319 64 348 c 1,15,16
 63 379 63 379 79.5 451 c 128,-1,17
 96 523 96 523 162 564 c 0,18,19
 221 601 221 601 297 601 c 0,20,21
 394 601 394 601 432 545 c 0,22,23
 456 510 456 510 452 470 c 0,24,25
 449 446 449 446 428 296 c 0,26,27
 406 141 406 141 401 120 c 0,28,29
 393 79 393 79 352 39 c 0,30,31
 291 -20 291 -20 195 -20 c 0,32,33
 100 -20 100 -20 58 31 c 1,34,35
 33 63 33 63 33 100 c 0,36,37
 33 112 33 112 41 174 c 1,38,-1
 174 186 l 1,39,40
 170 168 170 168 170 157 c 0,41,42
 170 147 170 147 178.5 137 c 128,-1,43
 187 127 187 127 201 127 c 0,44,45
 242 127 242 127 248 169 c 0,46,47
 249 172 249 172 265 270 c 1,48,49
 237 259 237 259 200 257 c 1,11,12
EndSplineSet
EndChar

StartChar: colon
Encoding: 58 58 27
Width: 281
Flags: W
LayerCount: 2
Fore
SplineSet
220 238 m 1,0,-1
 67 228 l 1,1,-1
 87 373 l 1,2,-1
 239 378 l 1,3,-1
 220 238 l 1,0,-1
190 7 m 1,4,-1
 37 -4 l 1,5,-1
 58 141 l 1,6,-1
 209 146 l 1,7,-1
 190 7 l 1,4,-1
EndSplineSet
EndChar

StartChar: semicolon
Encoding: 59 59 28
Width: 281
Flags: W
LayerCount: 2
Fore
SplineSet
239 378 m 1,0,-1
 220 238 l 1,1,-1
 67 228 l 1,2,-1
 87 373 l 1,3,-1
 239 378 l 1,0,-1
210 -48 m 1,4,5
 196 -88 196 -88 180 -110 c 1,6,7
 134 -116 134 -116 107 -113 c 1,8,-1
 131 5 l 1,9,10
 114 4 114 4 48 4 c 1,11,12
 49 57 49 57 57 152 c 1,13,14
 105 153 105 153 210 160 c 1,15,16
 209 144 209 144 216 45 c 1,17,18
 215 8 215 8 210 -48 c 1,4,5
EndSplineSet
EndChar

StartChar: less
Encoding: 60 60 29
Width: 418
Flags: W
LayerCount: 2
Fore
SplineSet
270 234 m 1,0,-1
 341 147 l 1,1,-1
 306 -2 l 1,2,-1
 51 249 l 1,3,-1
 388 464 l 1,4,-1
 356 289 l 1,5,-1
 270 234 l 1,0,-1
EndSplineSet
EndChar

StartChar: equal
Encoding: 61 61 30
Width: 373
Flags: W
LayerCount: 2
Fore
SplineSet
325 193 m 1,0,-1
 310 70 l 1,1,-1
 61 53 l 1,2,-1
 72 166 l 1,3,-1
 325 193 l 1,0,-1
325 351 m 1,4,-1
 310 228 l 1,5,-1
 61 210 l 1,6,-1
 72 324 l 1,7,-1
 325 351 l 1,4,-1
EndSplineSet
EndChar

StartChar: greater
Encoding: 62 62 31
Width: 423
Flags: W
LayerCount: 2
Fore
SplineSet
110 272 m 1,0,-1
 130 458 l 1,1,-1
 378 194 l 1,2,-1
 67 -12 l 1,3,-1
 79 153 l 1,4,-1
 164 213 l 1,5,-1
 110 272 l 1,0,-1
EndSplineSet
EndChar

StartChar: question
Encoding: 63 63 32
Width: 485
Flags: W
LayerCount: 2
Fore
SplineSet
169 413 m 1,0,-1
 49 489 l 1,1,2
 62 535 62 535 87 568 c 0,3,4
 146 647 146 647 256 647 c 0,5,6
 367 647 367 647 412 574 c 0,7,8
 437 533 437 533 437 476 c 0,9,10
 437 396 437 396 355 316 c 0,11,12
 308 269 308 269 280 209 c 1,13,14
 263 175 263 175 264 165 c 1,15,-1
 104 155 l 1,16,17
 109 183 109 183 115 206 c 0,18,19
 131 263 131 263 151 286 c 0,20,21
 191 330 191 330 230 374 c 0,22,23
 281 433 281 433 281 451 c 0,24,25
 281 470 281 470 268 482 c 0,26,27
 257 491 257 491 243 491 c 0,28,29
 213 491 213 491 192 459 c 0,30,31
 186 451 186 451 169 413 c 1,0,-1
258 131 m 1,32,-1
 99 122 l 1,33,-1
 82 -4 l 1,34,-1
 234 2 l 1,35,-1
 258 131 l 1,32,-1
EndSplineSet
EndChar

StartChar: at
Encoding: 64 64 33
Width: 905
Flags: W
LayerCount: 2
Fore
SplineSet
401 -37 m 0,0,1
 157 -40 157 -40 113 224 c 1,2,3
 109 300 109 300 121 348 c 1,4,5
 162 498 162 498 248 576 c 0,6,7
 313 635 313 635 405 652 c 0,8,9
 439 658 439 658 532 659 c 0,10,11
 634 661 634 661 706 613 c 1,12,13
 782 560 782 560 812 458 c 1,14,15
 821 394 821 394 821 365 c 0,16,17
 821 333 821 333 815 303 c 0,18,19
 790 186 790 186 737 144 c 0,20,21
 700 114 700 114 641 118 c 0,22,23
 592 121 592 121 542 159 c 1,24,25
 512 148 512 148 464.5 139.5 c 128,-1,26
 417 131 417 131 399 131 c 0,27,28
 352 132 352 132 322.5 164.5 c 128,-1,29
 293 197 293 197 293 245 c 0,30,31
 293 263 293 263 298 282 c 0,32,33
 321 375 321 375 371 415 c 1,34,35
 430 454 430 454 509 455 c 0,36,37
 511 455 511 455 662 452 c 1,38,39
 651 378 651 378 634 274 c 0,40,41
 627 236 627 236 657 236 c 0,42,43
 678 236 678 236 692 317 c 0,44,45
 698 355 698 355 698 385 c 0,46,47
 698 461 698 461 656.5 496 c 128,-1,48
 615 531 615 531 523 530 c 0,49,50
 414 529 414 529 360 495 c 1,51,52
 287 451 287 451 257 328 c 0,53,54
 249 294 249 294 249 263 c 0,55,56
 249 175 249 175 310 123 c 1,57,58
 365 74 365 74 446 74 c 0,59,60
 460 74 460 74 484 85 c 0,61,62
 505 95 505 95 512 103 c 1,63,64
 537 85 537 85 580 53 c 1,65,66
 508 -36 508 -36 401 -37 c 0,0,1
493 364 m 0,67,68
 478 363 478 363 472 358 c 0,69,70
 455 343 455 343 441 287 c 0,71,72
 437 268 437 268 437 255 c 0,73,74
 437 235 437 235 447 229 c 0,75,76
 449 228 449 228 465 225 c 0,77,78
 472 224 472 224 491 229.5 c 128,-1,79
 510 235 510 235 511 241 c 0,80,81
 518 280 518 280 536 356 c 1,82,83
 534 358 534 358 518.5 361 c 128,-1,84
 503 364 503 364 493 364 c 0,67,68
EndSplineSet
EndChar

StartChar: C
Encoding: 67 67 36
Width: 476
Flags: W
LayerCount: 2
Fore
SplineSet
435 411 m 1,0,-1
 300 407 l 1,1,2
 301 417 301 417 301 426 c 0,3,4
 301 477 301 477 269 477 c 0,5,6
 240 477 240 477 222 444 c 1,7,8
 208 372 208 372 182 228 c 0,9,10
 179 209 179 209 187.5 195 c 128,-1,11
 196 181 196 181 214 181 c 0,12,13
 269 181 269 181 276 271 c 1,14,15
 307 273 307 273 415 279 c 1,16,17
 414 267 414 267 409 240 c 0,18,19
 366 13 366 13 190 13 c 0,20,21
 104 13 104 13 60 58 c 0,22,23
 28 91 28 91 28 129 c 0,24,25
 28 165 28 165 49 295 c 0,26,27
 73 440 73 440 94.5 502.5 c 128,-1,28
 116 565 116 565 183 603 c 0,29,30
 244 638 244 638 311 638 c 1,31,32
 350 635 350 635 378 621 c 0,33,34
 445 590 445 590 450 510 c 1,35,-1
 435 411 l 1,0,-1
EndSplineSet
EndChar

StartChar: D
Encoding: 68 68 37
Width: 514
Flags: W
LayerCount: 2
Fore
SplineSet
198 156 m 1,0,1
 273 174 273 174 287 239 c 0,2,3
 320 391 320 391 319 462 c 0,4,5
 319 484 319 484 298 495.5 c 128,-1,6
 277 507 277 507 246 505 c 1,7,-1
 198 156 l 1,0,1
364 644 m 1,8,9
 439 630 439 630 464 547 c 0,10,11
 479 497 479 497 478 397 c 0,12,13
 476 191 476 191 357 56 c 1,14,15
 304 12 304 12 194 3 c 1,16,17
 106 1 106 1 19 -1 c 1,18,-1
 125 646 l 1,19,20
 264 644 264 644 364 644 c 1,8,9
EndSplineSet
EndChar

StartChar: F
Encoding: 70 70 39
Width: 473
Flags: W
LayerCount: 2
Fore
SplineSet
417 498 m 1,0,-1
 272 494 l 1,1,-1
 257 390 l 1,2,-1
 401 393 l 1,3,-1
 381 258 l 1,4,-1
 234 256 l 1,5,-1
 189 3 l 1,6,-1
 37 -1 l 1,7,8
 107 415 107 415 139 639 c 1,9,10
 163 639 163 639 435 637 c 1,11,-1
 417 498 l 1,0,-1
EndSplineSet
EndChar

StartChar: G
Encoding: 71 71 40
Width: 483
Flags: W
LayerCount: 2
Fore
SplineSet
438 403 m 1,0,-1
 306 406 l 1,1,2
 308 420 308 420 308 431 c 1,3,4
 310 444 310 444 299 459 c 0,5,6
 286 478 286 478 268 478 c 256,7,8
 250 478 250 478 234.5 459.5 c 128,-1,9
 219 441 219 441 216 417 c 0,10,11
 192 239 192 239 192 191 c 0,12,13
 192 178 192 178 202.5 169.5 c 128,-1,14
 213 161 213 161 226 161 c 1,15,16
 290 167 290 167 289 244 c 1,17,-1
 251 247 l 1,18,-1
 271 318 l 1,19,-1
 427 320 l 1,20,-1
 404 159 l 1,21,22
 361 -9 361 -9 191 -9 c 0,23,24
 37 -9 37 -9 37 141 c 0,25,26
 37 202 37 202 53 298 c 1,27,28
 77 452 77 452 78 455 c 0,29,30
 104 540 104 540 173 588 c 0,31,32
 231 629 231 629 293 629 c 0,33,34
 420 629 420 629 447 501 c 1,35,36
 447 481 447 481 438 403 c 1,0,-1
EndSplineSet
EndChar

StartChar: K
Encoding: 75 75 44
Width: 550
Flags: W
LayerCount: 2
Fore
SplineSet
327 245 m 1,0,-1
 465 1 l 1,1,-1
 308 -2 l 1,2,-1
 218 175 l 1,3,-1
 177 -2 l 1,4,-1
 20 -5 l 1,5,-1
 153 604 l 1,6,-1
 312 597 l 1,7,-1
 259 371 l 1,8,-1
 460 571 l 1,9,-1
 531 469 l 1,10,-1
 327 245 l 1,0,-1
EndSplineSet
EndChar

StartChar: L
Encoding: 76 76 45
Width: 406
Flags: W
LayerCount: 2
Fore
SplineSet
335 -1 m 1,0,-1
 28 -9 l 1,1,-1
 136 617 l 1,2,-1
 305 621 l 1,3,-1
 227 152 l 1,4,-1
 366 155 l 1,5,-1
 335 -1 l 1,0,-1
EndSplineSet
EndChar

StartChar: M
Encoding: 77 77 46
Width: 631
Flags: W
LayerCount: 2
Fore
SplineSet
488 -1 m 1,0,-1
 326 -4 l 1,1,-1
 372 299 l 1,2,-1
 281 212 l 1,3,-1
 235 282 l 1,4,-1
 190 -7 l 1,5,-1
 28 -8 l 1,6,-1
 135 625 l 1,7,-1
 272 630 l 1,8,-1
 341 466 l 1,9,-1
 434 633 l 1,10,-1
 593 637 l 1,11,-1
 488 -1 l 1,0,-1
EndSplineSet
EndChar

StartChar: Q
Encoding: 81 81 50
Width: 511
Flags: W
LayerCount: 2
Fore
SplineSet
498 17 m 1,0,-1
 492 16 l 2,1,2
 446 8 446 8 351 -7 c 1,3,-1
 315 50 l 1,4,5
 269 -5 269 -5 181 -10 c 1,6,7
 97 -10 97 -10 54 49 c 1,8,9
 27 88 27 88 27 121 c 0,10,11
 27 172 27 172 51 289 c 1,12,13
 84 442 84 442 87 463 c 0,14,15
 95 518 95 518 154.5 564 c 128,-1,16
 214 610 214 610 279 610 c 0,17,18
 346 610 346 610 392 567.5 c 128,-1,19
 438 525 438 525 438 458 c 1,20,21
 437 421 437 421 433 375 c 0,22,23
 425 264 425 264 403 129 c 1,24,25
 458 75 458 75 498 17 c 1,0,-1
310 390 m 0,26,27
 318 455 318 455 272 455 c 0,28,29
 234 455 234 455 223 379 c 0,30,31
 221 369 221 369 192 166 c 1,32,33
 222 164 222 164 255 164 c 0,34,35
 259 164 259 164 281 161 c 1,36,37
 294 266 294 266 310 390 c 0,26,27
EndSplineSet
EndChar

StartChar: S
Encoding: 83 83 52
Width: 470
Flags: W
LayerCount: 2
Fore
SplineSet
439 432 m 1,0,-1
 322 428 l 1,1,2
 320 477 320 477 278 482 c 1,3,4
 255 482 255 482 238.5 463.5 c 128,-1,5
 222 445 222 445 222 430 c 0,6,7
 222 397 222 397 265 370 c 128,-1,8
 308 343 308 343 350 317 c 1,9,10
 399 277 399 277 409 217 c 1,11,12
 404 162 404 162 377 93 c 0,13,14
 365 60 365 60 319 32 c 0,15,16
 263 -1 263 -1 191 -1 c 0,17,18
 120 -1 120 -1 74 30 c 0,19,20
 37 54 37 54 37 77 c 0,21,22
 37 90 37 90 56 210 c 1,23,-1
 177 209 l 1,24,25
 171 187 171 187 170 174 c 1,26,27
 170 136 170 136 207 136 c 0,28,29
 261 136 261 136 261 223 c 1,30,31
 252 254 252 254 170 309 c 0,32,33
 91 361 91 361 90 389 c 1,34,35
 94 425 94 425 110 503 c 1,36,37
 125 556 125 556 194 591 c 0,38,39
 248 619 248 619 291 619 c 0,40,41
 340 619 340 619 382 596 c 0,42,43
 430 570 430 570 440 525 c 0,44,45
 446 494 446 494 439 432 c 1,0,-1
EndSplineSet
EndChar

StartChar: U
Encoding: 85 85 54
Width: 528
Flags: W
LayerCount: 2
Fore
SplineSet
423 141 m 0,0,1
 415 91 415 91 364 51 c 0,2,3
 307 7 307 7 227 7 c 0,4,5
 113 7 113 7 69 78 c 0,6,7
 46 115 46 115 46 166 c 0,8,9
 46 177 46 177 107 626 c 1,10,-1
 253 628 l 1,11,12
 224 399 224 399 215 294 c 1,13,-1
 214 278 l 2,14,15
 212 255 212 255 212 238 c 0,16,17
 212 167 212 167 256 167 c 0,18,19
 289 167 289 167 298 237 c 2,20,-1
 350 630 l 1,21,-1
 499 633 l 1,22,-1
 426 158 l 2,23,24
 424 146 424 146 423 141 c 0,0,1
EndSplineSet
EndChar

StartChar: X
Encoding: 88 88 57
Width: 596
Flags: W
LayerCount: 2
Fore
SplineSet
351 300 m 1,0,-1
 431 8 l 1,1,-1
 276 -1 l 1,2,-1
 236 127 l 1,3,-1
 154 -8 l 1,4,-1
 -34 -13 l 1,5,-1
 192 316 l 1,6,-1
 91 637 l 1,7,-1
 249 638 l 1,8,-1
 299 474 l 1,9,-1
 421 643 l 1,10,-1
 611 647 l 1,11,-1
 351 300 l 1,0,-1
EndSplineSet
EndChar

StartChar: Z
Encoding: 90 90 59
Width: 517
Flags: W
LayerCount: 2
Fore
SplineSet
455 454 m 1,0,-1
 237 154 l 1,1,-1
 393 153 l 1,2,-1
 360 -4 l 1,3,-1
 30 -2 l 1,4,-1
 62 197 l 1,5,-1
 269 487 l 1,6,-1
 120 483 l 1,7,-1
 150 636 l 1,8,-1
 489 631 l 1,9,-1
 455 454 l 1,0,-1
EndSplineSet
EndChar

StartChar: bracketleft
Encoding: 91 91 60
Width: 306
Flags: W
LayerCount: 2
Fore
SplineSet
228 -68 m 1,0,1
 177 -58 177 -58 141 -37 c 0,2,3
 54 14 54 14 55 114 c 1,4,5
 62 333 62 333 70 553 c 1,6,7
 76 653 76 653 167 697 c 0,8,9
 205 716 205 716 256 722 c 1,10,-1
 247 560 l 1,11,12
 208 556 208 556 204 496 c 1,13,-1
 193 161 l 2,14,15
 192 101 192 101 231 95 c 1,16,-1
 228 -68 l 1,17,-1
 228 -68 l 1,0,1
EndSplineSet
EndChar

StartChar: backslash
Encoding: 92 92 61
Width: 494
Flags: W
LayerCount: 2
Fore
SplineSet
48 614 m 1,0,-1
 189 648 l 1,1,-1
 440 26 l 1,2,-1
 300 -22 l 1,3,-1
 48 614 l 1,0,-1
EndSplineSet
EndChar

StartChar: bracketright
Encoding: 93 93 62
Width: 352
Flags: W
LayerCount: 2
Fore
SplineSet
44 -51 m 1,0,-1
 70 110 l 1,1,2
 110 110 110 110 119 168 c 2,3,-1
 166 501 l 2,4,5
 167 512 167 512 167 521 c 0,6,7
 167 561 167 561 135 571 c 1,8,-1
 154 732 l 1,9,10
 309 686 309 686 309 555 c 0,11,12
 309 544 309 544 308 533 c 0,13,14
 278 315 278 315 247 98 c 1,15,16
 230 -1 230 -1 135 -36 c 0,17,18
 96 -50 96 -50 44 -51 c 1,0,-1
EndSplineSet
EndChar

StartChar: asciicircum
Encoding: 94 94 63
Width: 578
Flags: W
LayerCount: 2
Fore
SplineSet
198 347 m 1,0,-1
 57 339 l 1,1,-1
 321 594 l 1,2,-1
 529 355 l 1,3,-1
 406 340 l 1,4,-1
 313 432 l 1,5,-1
 198 347 l 1,0,-1
EndSplineSet
EndChar

StartChar: underscore
Encoding: 95 95 64
Width: 573
Flags: W
LayerCount: 2
Fore
SplineSet
519 -8 m 1,0,-1
 504 -140 l 1,1,-1
 61 -159 l 1,2,-1
 72 -36 l 1,3,-1
 519 -8 l 1,0,-1
EndSplineSet
EndChar

StartChar: grave
Encoding: 96 96 65
Width: 250
Flags: W
LayerCount: 2
Fore
SplineSet
214 596 m 1,0,-1
 63 589 l 1,1,-1
 36 695 l 1,2,-1
 185 695 l 1,3,-1
 214 596 l 1,0,-1
EndSplineSet
EndChar

StartChar: a
Encoding: 97 97 66
Width: 604
Flags: W
LayerCount: 2
Fore
SplineSet
358 392 m 1,0,-1
 290 231 l 1,1,-1
 370 225 l 1,2,-1
 358 392 l 1,0,-1
222 112 m 1,3,-1
 164 -1 l 1,4,-1
 -22 -3 l 1,5,6
 285 569 285 569 315 643 c 1,7,-1
 501 644 l 1,8,-1
 547 9 l 1,9,-1
 387 4 l 1,10,-1
 379 109 l 1,11,-1
 222 112 l 1,3,-1
EndSplineSet
EndChar

StartChar: b
Encoding: 98 98 67
Width: 565
Flags: W
LayerCount: 2
Fore
SplineSet
358 455 m 0,0,1
 358 473 358 473 345 485 c 128,-1,2
 332 497 332 497 314 497 c 2,3,-1
 281 497 l 1,4,-1
 262 385 l 1,5,6
 313 389 313 389 340 422 c 1,7,8
 358 442 358 442 358 455 c 0,0,1
222 155 m 1,9,10
 247 153 247 153 297 157 c 1,11,12
 337 167 337 167 337 210 c 0,13,14
 337 222 337 222 323 235 c 0,15,16
 297 257 297 257 239 254 c 1,17,-1
 222 155 l 1,9,10
427 633 m 1,18,19
 473 623 473 623 503 586 c 0,20,21
 537 544 537 544 537 483 c 1,22,23
 534 456 534 456 523 431 c 0,24,25
 496 369 496 369 430 322 c 1,26,27
 517 264 517 264 524 150 c 1,28,29
 524 86 524 86 464 40 c 1,30,31
 427 13 427 13 382 -1 c 1,32,-1
 28 -1 l 1,33,-1
 143 628 l 1,34,-1
 304 630 l 1,35,-1
 427 633 l 1,18,19
EndSplineSet
EndChar

StartChar: f
Encoding: 102 102 71
Width: 473
Flags: W
LayerCount: 2
Fore
SplineSet
416 498 m 1,0,-1
 272 494 l 1,1,-1
 257 390 l 1,2,-1
 400 393 l 1,3,-1
 380 258 l 1,4,-1
 234 256 l 1,5,-1
 189 3 l 1,6,-1
 37 -1 l 1,7,8
 107 415 107 415 138 639 c 1,9,10
 162 639 162 639 435 637 c 1,11,-1
 416 498 l 1,0,-1
EndSplineSet
EndChar

StartChar: h
Encoding: 104 104 73
Width: 539
Flags: W
LayerCount: 2
Fore
SplineSet
410 0 m 1,0,-1
 266 0 l 1,1,-1
 303 227 l 1,2,-1
 207 222 l 1,3,-1
 168 -1 l 1,4,-1
 30 -2 l 1,5,6
 64 189 64 189 133 633 c 1,7,-1
 277 634 l 1,8,-1
 237 374 l 1,9,10
 289 364 289 364 321 375 c 1,11,12
 323 385 323 385 364 635 c 1,13,-1
 512 635 l 1,14,-1
 410 0 l 1,0,-1
EndSplineSet
EndChar

StartChar: i
Encoding: 105 105 74
Width: 307
Flags: W
LayerCount: 2
Fore
SplineSet
183 -3 m 1,0,-1
 41 -3 l 1,1,-1
 131 623 l 1,2,-1
 277 629 l 1,3,-1
 183 -3 l 1,0,-1
EndSplineSet
EndChar

StartChar: j
Encoding: 106 106 75
Width: 508
Flags: W
LayerCount: 2
Fore
SplineSet
392 147 m 1,0,1
 348 -19 348 -19 195 -19 c 0,2,3
 20 -19 20 -19 8 92 c 0,4,5
 7 103 7 103 7 116 c 0,6,7
 7 162 7 162 31 255 c 1,8,-1
 159 283 l 1,9,10
 141 208 141 208 140 181 c 0,11,12
 140 162 140 162 157 148 c 0,13,14
 171 137 171 137 188 137 c 0,15,16
 206 137 206 137 230 158 c 1,17,18
 235 167 235 167 242 201 c 0,19,20
 258 282 258 282 284 475 c 1,21,-1
 181 471 l 1,22,-1
 197 598 l 1,23,-1
 462 601 l 1,24,25
 413 241 413 241 392 147 c 1,0,1
EndSplineSet
EndChar

StartChar: k
Encoding: 107 107 76
Width: 584
Flags: W
LayerCount: 2
Fore
SplineSet
144 629 m 1,0,-1
 304 632 l 1,1,-1
 237 256 l 1,2,3
 277 266 277 266 296 280 c 0,4,5
 331 308 331 308 352 373 c 1,6,7
 369 433 369 433 396 630 c 1,8,-1
 553 635 l 1,9,10
 510 378 510 378 501 342 c 1,11,12
 476 262 476 262 375 206 c 1,13,-1
 467 1 l 1,14,-1
 300 2 l 1,15,-1
 262 150 l 1,16,-1
 210 128 l 1,17,-1
 184 -3 l 1,18,-1
 26 -2 l 1,19,-1
 144 629 l 1,0,-1
EndSplineSet
EndChar

StartChar: n
Encoding: 110 110 79
Width: 559
Flags: W
LayerCount: 2
Fore
SplineSet
421 -3 m 1,0,-1
 261 -1 l 1,1,-1
 303 194 l 1,2,-1
 247 297 l 1,3,-1
 189 -3 l 1,4,-1
 34 -6 l 1,5,-1
 145 640 l 1,6,-1
 270 637 l 1,7,-1
 350 464 l 1,8,-1
 381 633 l 1,9,-1
 535 628 l 1,10,-1
 421 -3 l 1,0,-1
EndSplineSet
EndChar

StartChar: o
Encoding: 111 111 80
Width: 488
Flags: W
LayerCount: 2
Fore
SplineSet
460 512 m 1,0,1
 437 369 437 369 395 130 c 0,2,3
 385 76 385 76 351 37 c 0,4,5
 301 -19 301 -19 212 -19 c 0,6,7
 43 -19 43 -19 37 105 c 0,8,9
 36 115 36 115 37 126 c 0,10,11
 38 139 38 139 38 151 c 128,-1,12
 38 163 38 163 51 250 c 0,13,14
 67 363 67 363 91 460 c 0,15,16
 113 549 113 549 206 593 c 1,17,18
 267 623 267 623 306 620 c 1,19,20
 331 620 331 620 342 618 c 0,21,22
 449 599 449 599 460 512 c 1,0,1
227 414 m 1,23,-1
 226 414 l 1,24,25
 218 391 218 391 200 284 c 0,26,27
 183 183 183 183 183 169 c 0,28,29
 183 138 183 138 213 138 c 0,30,31
 242 138 242 138 256 154 c 0,32,33
 267 166 267 166 267 181 c 0,34,35
 267 185 267 185 266 194 c 1,36,-1
 313 454 l 1,37,38
 304 462 304 462 288 462 c 0,39,40
 269 462 269 462 250 446.5 c 128,-1,41
 231 431 231 431 227 414 c 1,23,-1
EndSplineSet
EndChar

StartChar: p
Encoding: 112 112 81
Width: 489
Flags: W
LayerCount: 2
Fore
SplineSet
179 0 m 1,0,1
 145 -1 145 -1 28 -4 c 1,2,-1
 129 613 l 1,3,4
 233 615 233 615 334 615 c 1,5,6
 388 617 388 617 429 572 c 0,7,8
 472 524 472 524 472 450 c 0,9,10
 472 355 472 355 375 282 c 1,11,12
 293 219 293 219 210 212 c 1,13,14
 193 102 193 102 179 0 c 1,0,1
345 433 m 0,15,16
 345 481 345 481 290 481 c 0,17,18
 276 481 276 481 259 477 c 1,19,20
 246 419 246 419 230 327 c 1,21,22
 294 350 294 350 326 393 c 0,23,24
 345 418 345 418 345 433 c 0,15,16
EndSplineSet
EndChar

StartChar: r
Encoding: 114 114 83
Width: 578
Flags: W
LayerCount: 2
Fore
SplineSet
200 0 m 1,0,-1
 28 2 l 1,1,-1
 158 627 l 1,2,3
 316 633 316 633 385 629 c 1,4,5
 541 630 541 630 541 454 c 1,6,7
 538 418 538 418 525 385 c 0,8,9
 493 304 493 304 414 248 c 1,10,-1
 525 -5 l 1,11,-1
 353 -6 l 1,12,-1
 291 212 l 1,13,-1
 238 203 l 1,14,-1
 200 0 l 1,0,-1
368 444 m 1,15,16
 368 485 368 485 322 485 c 0,17,18
 319 485 319 485 289 479 c 1,19,-1
 261 329 l 1,20,21
 353 356 353 356 368 444 c 1,15,16
EndSplineSet
EndChar

StartChar: t
Encoding: 116 116 85
Width: 479
Flags: W
LayerCount: 2
Fore
SplineSet
432 492 m 1,0,-1
 332 489 l 1,1,-1
 257 1 l 1,2,-1
 95 -4 l 1,3,-1
 165 482 l 1,4,-1
 38 479 l 1,5,-1
 62 621 l 1,6,-1
 451 631 l 1,7,-1
 432 492 l 1,0,-1
EndSplineSet
EndChar

StartChar: v
Encoding: 118 118 87
Width: 540
Flags: W
LayerCount: 2
Fore
SplineSet
286 6 m 1,0,-1
 83 1 l 1,1,-1
 65 630 l 1,2,-1
 229 633 l 1,3,-1
 236 261 l 1,4,-1
 440 636 l 1,5,-1
 608 640 l 1,6,-1
 286 6 l 1,0,-1
EndSplineSet
EndChar

StartChar: w
Encoding: 119 119 88
Width: 723
Flags: W
LayerCount: 2
Fore
SplineSet
442 8 m 1,0,-1
 330 5 l 1,1,-1
 323 165 l 1,2,-1
 225 2 l 1,3,-1
 105 -4 l 1,4,-1
 68 636 l 1,5,-1
 230 639 l 1,6,-1
 241 411 l 1,7,-1
 364 640 l 1,8,-1
 471 644 l 1,9,-1
 476 425 l 1,10,-1
 595 644 l 1,11,-1
 759 649 l 1,12,-1
 442 8 l 1,0,-1
EndSplineSet
EndChar

StartChar: y
Encoding: 121 121 90
Width: 548
Flags: W
LayerCount: 2
Fore
SplineSet
338 291 m 1,0,-1
 315 4 l 1,1,2
 229 6 229 6 133 -1 c 1,3,-1
 183 363 l 1,4,-1
 43 639 l 1,5,-1
 214 640 l 1,6,-1
 276 489 l 1,7,-1
 365 640 l 1,8,-1
 554 638 l 1,9,-1
 338 291 l 1,0,-1
EndSplineSet
EndChar

StartChar: braceleft
Encoding: 123 123 92
Width: 338
Flags: W
LayerCount: 2
Fore
SplineSet
255 512 m 1,0,-1
 254 457 l 2,1,2
 253 441 253 441 232 411 c 1,3,4
 204 374 204 374 176 337 c 1,5,6
 241 239 241 239 241 226 c 0,7,8
 241 158 241 158 245 137 c 0,9,10
 252 98 252 98 279 85 c 1,11,-1
 276 -68 l 1,12,13
 225 -58 225 -58 189 -37 c 0,14,15
 102 14 102 14 103 114 c 0,16,17
 103 159 103 159 102 173 c 1,18,19
 102 200 102 200 30 342 c 1,20,21
 56 385 56 385 82 427 c 0,22,23
 117 486 117 486 116 497 c 1,24,-1
 118 553 l 2,25,26
 121 653 121 653 213 697 c 0,27,28
 251 716 251 716 304 722 c 1,29,-1
 296 568 l 1,30,31
 278 562 278 562 271 554 c 0,32,33
 258 541 258 541 254 512 c 1,34,-1
 255 512 l 1,0,-1
EndSplineSet
EndChar

StartChar: bar
Encoding: 124 124 93
Width: 328
Flags: W
LayerCount: 2
Fore
SplineSet
177 -8 m 1,0,-1
 44 -12 l 1,1,-1
 139 643 l 1,2,-1
 278 660 l 1,3,-1
 177 -8 l 1,0,-1
EndSplineSet
EndChar

StartChar: braceright
Encoding: 125 125 94
Width: 354
Flags: W
LayerCount: 2
Fore
SplineSet
92 149 m 1,0,-1
 111 224 l 2,1,2
 118 249 118 249 135 268 c 0,3,4
 159 293 159 293 183 317 c 1,5,6
 177 329 177 329 144 379 c 0,7,8
 125 407 125 407 126 418 c 0,9,10
 128 468 128 468 128 488 c 0,11,12
 128 577 128 577 97 595 c 1,13,-1
 111 729 l 1,14,15
 161 715 161 715 196 692 c 0,16,17
 279 635 279 635 272 535 c 0,18,19
 270 515 270 515 268 476 c 0,20,21
 266 449 266 449 328 303 c 1,22,23
 300 262 300 262 271 221 c 0,24,25
 232 165 232 165 231 154 c 2,26,-1
 226 98 l 1,27,28
 216 -1 216 -1 121 -39 c 0,29,30
 82 -55 82 -55 28 -58 c 1,31,-1
 46 82 l 1,32,33
 77 90 77 90 93 148 c 1,34,-1
 92 149 l 1,0,-1
EndSplineSet
EndChar

StartChar: asciitilde
Encoding: 126 126 95
Width: 428
Flags: W
LayerCount: 2
Fore
SplineSet
57 247 m 1,0,1
 72 257 72 257 106 265 c 1,2,3
 132 270 132 270 145 270 c 0,4,5
 209 270 209 270 244 256.5 c 128,-1,6
 279 243 279 243 328 243 c 0,7,8
 343 243 343 243 358 253 c 0,9,10
 370 260 370 260 381 268 c 1,11,-1
 367 141 l 1,12,13
 322 119 322 119 305 119 c 0,14,15
 289 119 289 119 247 135 c 0,16,17
 201 153 201 153 174 153 c 0,18,19
 124 153 124 153 47 129 c 1,20,-1
 57 247 l 1,21,-1
 57 247 l 1,0,1
EndSplineSet
EndChar

StartChar: dieresis
Encoding: 168 168 132
Width: 961
Flags: W
LayerCount: 2
Fore
SplineSet
353 598 m 1,0,-1
 210 592 l 1,1,-1
 237 689 l 1,2,-1
 371 695 l 1,3,-1
 353 598 l 1,0,-1
591 699 m 1,4,-1
 574 596 l 1,5,-1
 444 590 l 1,6,-1
 457 695 l 1,7,-1
 591 699 l 1,4,-1
EndSplineSet
EndChar

StartChar: copyright
Encoding: 169 169 130
Width: 662
Flags: W
LayerCount: 2
Fore
SplineSet
595 368 m 0,0,1
 557 108 557 108 324 94 c 0,2,3
 193 86 193 86 119 159 c 0,4,5
 51 226 51 226 51 336 c 0,6,7
 51 464 51 464 122 548 c 0,8,9
 197 637 197 637 324 643 c 1,10,11
 454 648 454 648 529 578 c 0,12,13
 598 513 598 513 598 410 c 0,14,15
 598 389 598 389 595 368 c 0,0,1
475 489 m 0,16,17
 475 511 475 511 461 531 c 1,18,19
 437 569 437 569 378 569 c 0,20,21
 316 569 316 569 275 536 c 1,22,23
 241 510 241 510 233 474 c 0,24,25
 204 335 204 335 204 257 c 0,26,27
 204 166 204 166 303 166 c 0,28,29
 355 166 355 166 394 206 c 1,30,31
 419 230 419 230 429 257 c 0,32,33
 451 313 451 313 451 351 c 1,34,-1
 354 344 l 1,35,36
 354 288 354 288 321 288 c 0,37,38
 299 288 299 288 305 323 c 0,39,40
 321 411 321 411 327 435 c 0,41,42
 333 463 333 463 354 463 c 0,43,44
 369 463 369 463 368 421 c 1,45,-1
 465 423 l 1,46,47
 475 483 475 483 475 489 c 0,16,17
EndSplineSet
EndChar

StartChar: guillemotleft
Encoding: 171 171 138
Width: 561
Flags: W
LayerCount: 2
Fore
SplineSet
424 173 m 1,0,-1
 508 20 l 1,1,-1
 390 -26 l 1,2,-1
 281 197 l 1,3,-1
 391 383 l 1,4,-1
 515 375 l 1,5,-1
 424 173 l 1,0,-1
193 173 m 1,6,-1
 278 20 l 1,7,-1
 159 -26 l 1,8,-1
 50 197 l 1,9,-1
 160 383 l 1,10,-1
 284 375 l 1,11,-1
 193 173 l 1,6,-1
EndSplineSet
EndChar

StartChar: degree
Encoding: 176 176 128
Width: 319
Flags: W
LayerCount: 2
Fore
SplineSet
266 539 m 256,0,1
 266 494 266 494 234.5 462 c 128,-1,2
 203 430 203 430 158 430 c 256,3,4
 113 430 113 430 81 462 c 128,-1,5
 49 494 49 494 49 539 c 256,6,7
 49 584 49 584 81 615.5 c 128,-1,8
 113 647 113 647 158 647 c 256,9,10
 203 647 203 647 234.5 615.5 c 128,-1,11
 266 584 266 584 266 539 c 256,0,1
186 541 m 256,12,13
 186 567 186 567 160 567 c 256,14,15
 134 567 134 567 134 541 c 256,16,17
 134 515 134 515 160 515 c 256,18,19
 186 515 186 515 186 541 c 256,12,13
EndSplineSet
EndChar

StartChar: acute
Encoding: 180 180 131
Width: 273
Flags: W
LayerCount: 2
Fore
SplineSet
201 596 m 1,0,-1
 54 592 l 1,1,-1
 74 695 l 1,2,-1
 220 695 l 1,3,-1
 201 596 l 1,0,-1
EndSplineSet
EndChar

StartChar: cedilla
Encoding: 184 184 181
Width: 961
Flags: W
LayerCount: 2
Fore
SplineSet
120 -29 m 1,0,1
 117 -20 117 -20 117 0 c 0,2,3
 117 8 117 8 125 37 c 1,4,5
 165 62 165 62 187 62 c 0,6,7
 195 62 195 62 203 61 c 1,8,9
 230 49 230 49 236 23 c 0,10,11
 237 19 237 19 237 -25 c 0,12,13
 237 -56 237 -56 184 -81 c 1,14,15
 175 -25 175 -25 145 -25 c 0,16,17
 137 -25 137 -25 120 -29 c 1,0,1
EndSplineSet
EndChar

StartChar: guillemotright
Encoding: 187 187 139
Width: 561
Flags: W
LayerCount: 2
Fore
SplineSet
50 375 m 1,0,-1
 174 383 l 1,1,-1
 284 197 l 1,2,-1
 175 -26 l 1,3,-1
 57 20 l 1,4,-1
 141 173 l 1,5,-1
 50 375 l 1,0,-1
281 375 m 1,6,-1
 404 383 l 1,7,-1
 515 197 l 1,8,-1
 405 -26 l 1,9,-1
 287 20 l 1,10,-1
 372 173 l 1,11,-1
 281 375 l 1,6,-1
EndSplineSet
EndChar

StartChar: Aacute
Encoding: 193 193 165
Width: 604
Flags: W
LayerCount: 2
Fore
SplineSet
358 392 m 1,0,-1
 290 231 l 1,1,-1
 370 225 l 1,2,-1
 358 392 l 1,0,-1
222 112 m 1,3,-1
 164 -1 l 1,4,-1
 -22 -3 l 1,5,6
 285 568 285 568 310 632 c 1,7,-1
 360 632 l 1,8,-1
 395 707 l 1,9,-1
 521 709 l 1,10,-1
 496 632 l 1,11,-1
 547 9 l 1,12,-1
 387 4 l 1,13,-1
 379 109 l 1,14,-1
 222 112 l 1,3,-1
EndSplineSet
EndChar

StartChar: Adieresis
Encoding: 196 196 96
Width: 635
Flags: W
LayerCount: 2
Fore
SplineSet
358 392 m 1,0,-1
 290 231 l 1,1,-1
 370 225 l 1,2,-1
 358 392 l 1,0,-1
457 705 m 1,3,-1
 592 710 l 1,4,-1
 575 595 l 1,5,-1
 505 592 l 1,6,-1
 547 9 l 1,7,-1
 387 4 l 1,8,-1
 379 109 l 1,9,-1
 222 112 l 1,10,-1
 164 -1 l 1,11,-1
 -22 -3 l 1,12,13
 218 444 218 444 293 596 c 1,14,-1
 208 593 l 1,15,-1
 237 700 l 1,16,-1
 372 705 l 1,17,-1
 362 644 l 1,18,-1
 450 644 l 1,19,-1
 457 705 l 1,3,-1
EndSplineSet
EndChar

StartChar: Ccedilla
Encoding: 199 199 98
Width: 495
Flags: W
LayerCount: 2
Fore
SplineSet
453 416 m 1,0,-1
 334 414 l 1,1,2
 338 436 338 436 340 451 c 0,3,4
 343 472 343 472 334 491 c 0,5,6
 324 514 324 514 304 514 c 0,7,8
 280 514 280 514 262 478 c 0,9,10
 248 449 248 449 244 413 c 1,11,12
 229 349 229 349 206 233 c 1,13,14
 204 216 204 216 204 203 c 0,15,16
 204 151 204 151 241 151 c 0,17,18
 262 151 262 151 280 177 c 0,19,20
 294 198 294 198 297 216 c 0,21,22
 298 225 298 225 304 266 c 1,23,-1
 420 261 l 1,24,25
 410 200 410 200 405 179 c 1,26,27
 362 52 362 52 237 21 c 1,28,29
 239 11 239 11 238 -3 c 1,30,31
 238 -25 238 -25 238 -21 c 1,32,33
 236 -33 236 -33 230 -44 c 0,34,35
 216 -69 216 -69 184 -80 c 1,36,37
 177 -29 177 -29 146 -25 c 0,38,39
 139 -25 139 -25 119 -28 c 1,40,41
 113 -6 113 -6 126 37 c 1,42,43
 43 60 43 60 51 190 c 1,44,45
 73 330 73 330 98 487 c 1,46,47
 103 534 103 534 162 583 c 0,48,49
 229 640 229 640 312 640 c 0,50,51
 373 640 373 640 418 598 c 0,52,53
 451 567 451 567 460 535 c 1,54,55
 466 500 466 500 453 416 c 1,0,-1
EndSplineSet
EndChar

StartChar: Edieresis
Encoding: 203 203 166
Width: 434
Flags: W
LayerCount: 2
Fore
SplineSet
304 705 m 1,0,-1
 442 709 l 1,1,-1
 428 596 l 1,2,-1
 402 595 l 1,3,-1
 390 501 l 1,4,-1
 256 496 l 1,5,-1
 238 380 l 1,6,-1
 371 384 l 1,7,-1
 351 260 l 1,8,-1
 214 256 l 1,9,-1
 201 140 l 1,10,-1
 332 143 l 1,11,-1
 305 4 l 1,12,-1
 30 1 l 1,13,14
 54 131 54 131 124 594 c 1,15,-1
 69 595 l 1,16,-1
 84 698 l 1,17,-1
 217 705 l 1,18,-1
 206 632 l 1,19,-1
 296 633 l 1,20,-1
 304 705 l 1,0,-1
EndSplineSet
EndChar

StartChar: Oacute
Encoding: 211 211 172
Width: 488
Flags: W
LayerCount: 2
Fore
SplineSet
460 512 m 1,0,1
 437 369 437 369 395 130 c 0,2,3
 385 76 385 76 351 37 c 0,4,5
 301 -19 301 -19 212 -19 c 0,6,7
 43 -19 43 -19 37 105 c 0,8,9
 36 115 36 115 37 126 c 0,10,11
 38 139 38 139 38 151 c 128,-1,12
 38 163 38 163 51 250 c 0,13,14
 67 363 67 363 91 460 c 0,15,16
 110 538 110 538 172 581 c 0,17,18
 230 621 230 621 296 615 c 0,19,20
 296 614 296 614 300 660 c 0,21,22
 304 702 304 702 303 713 c 1,23,24
 427 713 427 713 426 711 c 0,25,26
 406 672 406 672 377 610 c 1,27,28
 423 608 423 608 446 564 c 0,29,30
 462 534 462 534 460 512 c 1,0,1
227 414 m 1,31,-1
 226 414 l 1,32,33
 218 391 218 391 200 284 c 0,34,35
 183 183 183 183 183 169 c 0,36,37
 183 138 183 138 213 138 c 0,38,39
 242 138 242 138 256 154 c 0,40,41
 267 166 267 166 267 181 c 0,42,43
 267 185 267 185 266 194 c 1,44,-1
 313 454 l 1,45,46
 304 462 304 462 288 462 c 0,47,48
 269 462 269 462 250 446.5 c 128,-1,49
 231 431 231 431 227 414 c 1,31,-1
EndSplineSet
EndChar

StartChar: Ocircumflex
Encoding: 212 212 173
Width: 488
Flags: W
LayerCount: 2
Fore
SplineSet
227 443 m 1,0,-1
 226 443 l 1,1,2
 218 420 218 420 200 303 c 0,3,4
 183 193 183 193 183 178 c 0,5,6
 183 148 183 148 213 148 c 0,7,8
 242 148 242 148 256 164 c 0,9,10
 267 176 267 176 267 190 c 0,11,12
 267 195 267 195 266 204 c 1,13,-1
 313 483 l 1,14,15
 304 491 304 491 288 491 c 0,16,17
 269 491 269 491 250 475 c 128,-1,18
 231 459 231 459 227 443 c 1,0,-1
233 636 m 1,19,-1
 242 699 l 1,20,-1
 375 768 l 1,21,-1
 488 720 l 1,22,-1
 449 638 l 1,23,-1
 352 680 l 1,24,25
 340 672 340 672 328 663 c 1,26,27
 297 644 297 644 302 644 c 0,28,29
 366 644 366 644 410 618 c 0,30,31
 458 590 458 590 460 541 c 1,32,33
 404 194 404 194 394.5 140 c 128,-1,34
 385 86 385 86 351 47 c 0,35,36
 301 -9 301 -9 212 -9 c 0,37,38
 43 -9 43 -9 37 115 c 0,39,40
 36 125 36 125 37 136 c 0,41,42
 38 149 38 149 38 148 c 1,43,44
 38 175 38 175 51 269 c 0,45,46
 67 393 67 393 91 489 c 0,47,48
 103 537 103 537 144 582 c 128,-1,49
 185 627 185 627 233 636 c 1,19,-1
EndSplineSet
EndChar

StartChar: Otilde
Encoding: 213 213 143
Width: 488
Flags: W
LayerCount: 2
Fore
SplineSet
227 414 m 1,0,-1
 226 414 l 1,1,2
 218 391 218 391 200 284 c 0,3,4
 183 183 183 183 183 169 c 0,5,6
 183 138 183 138 213 138 c 0,7,8
 242 138 242 138 256 154 c 0,9,10
 267 166 267 166 267 181 c 0,11,12
 267 185 267 185 266 194 c 1,13,-1
 313 454 l 1,14,15
 304 462 304 462 288 462 c 0,16,17
 269 462 269 462 250 446.5 c 128,-1,18
 231 431 231 431 227 414 c 1,0,-1
140 703 m 1,19,20
 180 731 180 731 226 731 c 0,21,22
 290 731 290 731 324.5 717.5 c 128,-1,23
 359 704 359 704 408 704 c 0,24,25
 424 704 424 704 439 714 c 0,26,27
 450 721 450 721 462 729 c 1,28,-1
 452 611 l 1,29,30
 436 593 436 593 410 591 c 1,31,32
 458 568 458 568 460 512 c 1,33,34
 437 369 437 369 395 130 c 0,35,36
 385 76 385 76 351 37 c 0,37,38
 301 -19 301 -19 212 -19 c 0,39,40
 43 -19 43 -19 37 105 c 0,41,42
 36 115 36 115 37 126 c 0,43,44
 38 139 38 139 38 151 c 128,-1,45
 38 163 38 163 51 250 c 0,46,47
 67 363 67 363 91 460 c 0,48,49
 119 576 119 576 227 600 c 1,50,51
 212 606 212 606 189 606 c 0,52,53
 161 606 161 606 128 598 c 1,54,-1
 140 703 l 1,19,20
EndSplineSet
EndChar

StartChar: Odieresis
Encoding: 214 214 101
Width: 503
Flags: W
LayerCount: 2
Fore
SplineSet
460 512 m 1,0,1
 437 369 437 369 394 130 c 0,2,3
 385 76 385 76 350 37 c 0,4,5
 300 -19 300 -19 212 -19 c 0,6,7
 42 -19 42 -19 37 105 c 0,8,9
 36 115 36 115 36.5 127 c 128,-1,10
 37 139 37 139 37 151 c 128,-1,11
 37 163 37 163 50 250 c 0,12,13
 67 363 67 363 90 460 c 0,14,15
 98 492 98 492 117 530 c 0,16,17
 143 583 143 583 169 592 c 1,18,-1
 109 592 l 1,19,20
 113 636 113 636 121 700 c 1,21,22
 180 702 180 702 265 706 c 1,23,24
 255 655 255 655 252 618 c 1,25,26
 271 623 271 623 305 620 c 0,27,28
 311 620 311 620 326 619 c 1,29,30
 330 655 330 655 336 706 c 1,31,-1
 482 711 l 1,32,33
 474 622 474 622 471 597 c 1,34,35
 454 598 454 598 417 598 c 1,36,37
 455 574 455 574 460 512 c 1,0,1
226 414 m 1,38,39
 217 391 217 391 199 284 c 0,40,41
 182 183 182 183 182 169 c 0,42,43
 182 138 182 138 213 138 c 0,44,45
 241 138 241 138 256 154 c 0,46,47
 267 166 267 166 266 181 c 0,48,49
 266 185 266 185 265 194 c 1,50,-1
 312 454 l 1,51,52
 303 462 303 462 288 462 c 0,53,54
 268 462 268 462 249.5 446.5 c 128,-1,55
 231 431 231 431 226 414 c 1,38,39
EndSplineSet
EndChar

StartChar: acircumflex
Encoding: 226 226 105
Width: 604
Flags: W
LayerCount: 2
Fore
SplineSet
358 392 m 1,0,-1
 290 231 l 1,1,-1
 370 226 l 1,2,-1
 358 392 l 1,0,-1
347 695 m 2,3,4
 347 700 347 700 411 734 c 0,5,6
 444 751 444 751 476 768 c 1,7,-1
 593 719 l 1,8,-1
 552 640 l 1,9,-1
 457 678 l 1,10,-1
 382 630 l 1,11,-1
 458 633 l 1,12,-1
 547 9 l 1,13,-1
 387 4 l 1,14,-1
 379 110 l 1,15,-1
 222 112 l 1,16,-1
 164 -1 l 1,17,-1
 -6 -3 l 1,18,-1
 322 629 l 1,19,-1
 336 629 l 1,20,-1
 347 695 l 2,3,4
EndSplineSet
EndChar

StartChar: atilde
Encoding: 227 227 107
Width: 604
Flags: W
LayerCount: 2
Fore
SplineSet
358 392 m 1,0,-1
 290 231 l 1,1,-1
 370 225 l 1,2,-1
 358 392 l 1,0,-1
243 689 m 1,3,4
 258 699 258 699 292 706 c 0,5,6
 318 712 318 712 331 712 c 0,7,8
 396 712 396 712 430.5 698.5 c 128,-1,9
 465 685 465 685 514 685 c 0,10,11
 529 685 529 685 545 694 c 1,12,13
 556 702 556 702 568 710 c 1,14,-1
 553 592 l 1,15,16
 538 585 538 585 501 578 c 1,17,-1
 547 9 l 1,18,-1
 387 4 l 1,19,-1
 379 109 l 1,20,-1
 222 112 l 1,21,-1
 164 -1 l 1,22,-1
 -22 -3 l 1,23,-1
 299 598 l 1,24,25
 273 597 273 597 233 579 c 1,26,-1
 243 689 l 1,3,4
EndSplineSet
EndChar

StartChar: aring
Encoding: 229 229 108
Width: 604
Flags: W
LayerCount: 2
Fore
SplineSet
547 9 m 1,0,-1
 387 4 l 1,1,-1
 379 109 l 1,2,-1
 222 112 l 1,3,-1
 164 -1 l 1,4,-1
 -22 -3 l 1,5,-1
 293 576 l 1,6,7
 285 592 285 592 288 613 c 0,8,9
 292 647 292 647 319 673 c 0,10,11
 351 703 351 703 398 703 c 0,12,13
 444 703 444 703 475.5 673 c 128,-1,14
 507 643 507 643 507 594 c 0,15,16
 507 570 507 570 494 552 c 1,17,-1
 547 9 l 1,0,-1
427 601 m 256,18,19
 427 627 427 627 401 627 c 256,20,21
 375 627 375 627 375 601 c 256,22,23
 375 575 375 575 401 575 c 256,24,25
 427 575 427 575 427 601 c 256,18,19
370 225 m 1,26,-1
 358 392 l 1,27,-1
 290 231 l 1,28,-1
 370 225 l 1,26,-1
EndSplineSet
EndChar

StartChar: ae
Encoding: 230 230 134
Width: 796
Flags: W
LayerCount: 2
Fore
SplineSet
453 446 m 1,0,-1
 321 226 l 1,1,-1
 409 224 l 1,2,-1
 453 446 l 1,0,-1
747 503 m 1,3,-1
 613 498 l 1,4,-1
 595 381 l 1,5,-1
 728 386 l 1,6,-1
 708 262 l 1,7,-1
 572 258 l 1,8,-1
 558 142 l 1,9,-1
 689 145 l 1,10,-1
 663 6 l 1,11,12
 628 5 628 5 517 3 c 0,13,14
 423 2 423 2 380 2 c 1,15,-1
 398 111 l 1,16,-1
 279 112 l 1,17,-1
 222 -1 l 1,18,-1
 35 -3 l 1,19,20
 172 218 172 218 293 432 c 0,21,22
 391 604 391 604 402 632 c 1,23,24
 495 633 495 633 764 636 c 1,25,-1
 747 503 l 1,3,-1
EndSplineSet
EndChar

StartChar: egrave
Encoding: 232 232 111
Width: 434
Flags: W
LayerCount: 2
Fore
SplineSet
390 501 m 1,0,-1
 256 496 l 1,1,-1
 238 380 l 1,2,-1
 371 384 l 1,3,-1
 351 260 l 1,4,-1
 214 256 l 1,5,-1
 201 140 l 1,6,-1
 332 143 l 1,7,-1
 305 4 l 1,8,-1
 30 1 l 1,9,10
 55 137 55 137 130 632 c 1,11,-1
 197 632 l 1,12,-1
 181 696 l 1,13,-1
 330 695 l 1,14,-1
 349 632 l 1,15,-1
 406 634 l 1,16,-1
 390 501 l 1,0,-1
EndSplineSet
EndChar

StartChar: eacute
Encoding: 233 233 110
Width: 459
Flags: W
LayerCount: 2
Fore
SplineSet
350 627 m 1,0,-1
 435 632 l 1,1,-1
 412 483 l 1,2,-1
 273 481 l 1,3,-1
 257 369 l 1,4,-1
 399 371 l 1,5,-1
 380 239 l 1,6,-1
 237 235 l 1,7,-1
 223 131 l 1,8,-1
 369 136 l 1,9,-1
 352 -2 l 1,10,-1
 43 0 l 1,11,-1
 138 630 l 1,12,-1
 207 632 l 1,13,-1
 219 695 l 1,14,-1
 365 696 l 1,15,-1
 350 627 l 1,0,-1
EndSplineSet
EndChar

StartChar: ecircumflex
Encoding: 234 234 112
Width: 434
Flags: W
LayerCount: 2
Fore
SplineSet
156 622 m 1,0,-1
 166 698 l 1,1,-1
 295 768 l 1,2,-1
 410 719 l 1,3,-1
 371 638 l 1,4,-1
 277 680 l 1,5,-1
 195 623 l 1,6,7
 251 624 251 624 406 624 c 1,8,-1
 390 496 l 1,9,-1
 255 491 l 1,10,-1
 238 375 l 1,11,-1
 371 379 l 1,12,-1
 351 255 l 1,13,-1
 214 251 l 1,14,-1
 200 135 l 1,15,-1
 332 138 l 1,16,-1
 305 4 l 1,17,-1
 30 1 l 1,18,19
 45 83 45 83 129 622 c 1,20,-1
 156 622 l 1,0,-1
EndSplineSet
EndChar

StartChar: igrave
Encoding: 236 236 115
Width: 307
Flags: W
LayerCount: 2
Fore
SplineSet
183 -3 m 1,0,-1
 41 -3 l 1,1,-1
 133 624 l 1,2,-1
 168 627 l 1,3,-1
 110 709 l 1,4,-1
 211 711 l 1,5,-1
 240 627 l 1,6,-1
 277 629 l 1,7,-1
 183 -3 l 1,0,-1
EndSplineSet
EndChar

StartChar: iacute
Encoding: 237 237 114
Width: 312
Flags: W
LayerCount: 2
Fore
SplineSet
183 -3 m 1,0,-1
 41 -3 l 1,1,-1
 131 623 l 1,2,-1
 184 625 l 1,3,-1
 199 713 l 1,4,-1
 306 716 l 1,5,-1
 246 623 l 1,6,-1
 276 624 l 1,7,-1
 183 -3 l 1,0,-1
EndSplineSet
EndChar

StartChar: icircumflex
Encoding: 238 238 116
Width: 320
Flags: W
LayerCount: 2
Fore
SplineSet
112 679 m 1,0,1
 178 721 178 721 256 763 c 1,2,-1
 360 714 l 1,3,-1
 314 625 l 1,4,5
 289 634 289 634 247 647 c 1,6,7
 235 639 235 639 190 611 c 1,8,-1
 274 610 l 1,9,-1
 183 -3 l 1,10,-1
 41 -3 l 1,11,-1
 134 598 l 1,12,13
 127 623 127 623 112 679 c 1,0,1
EndSplineSet
EndChar

StartChar: idieresis
Encoding: 239 239 117
Width: 323
Flags: W
LayerCount: 2
Fore
SplineSet
271 718 m 1,0,-1
 404 721 l 1,1,-1
 388 596 l 1,2,-1
 287 591 l 1,3,-1
 199 -3 l 1,4,-1
 57 -3 l 1,5,-1
 142 597 l 1,6,-1
 35 592 l 1,7,-1
 54 711 l 1,8,-1
 184 718 l 1,9,-1
 171 624 l 1,10,-1
 262 628 l 1,11,-1
 271 718 l 1,0,-1
EndSplineSet
EndChar

StartChar: ntilde
Encoding: 241 241 118
Width: 559
Flags: W
LayerCount: 2
Fore
SplineSet
182 627 m 1,0,-1
 195 724 l 1,1,2
 220 735 220 735 275 752 c 0,3,4
 284 754 284 754 297 754 c 0,5,6
 313 754 313 754 345 750 c 128,-1,7
 377 746 377 746 385 745 c 1,8,9
 410 745 410 745 457 753 c 1,10,-1
 514 765 l 1,11,-1
 503 673 l 1,12,13
 459 658 459 658 439 658 c 0,14,15
 403 658 403 658 343 662 c 0,16,17
 313 663 313 663 293 658 c 0,18,19
 257 648 257 648 239 630 c 1,20,-1
 282 630 l 1,21,-1
 351 466 l 1,22,-1
 393 630 l 1,23,-1
 546 631 l 1,24,-1
 422 0 l 1,25,-1
 262 0 l 1,26,-1
 304 194 l 1,27,28
 288 223 288 223 248 298 c 1,29,-1
 188 0 l 1,30,-1
 35 -7 l 1,31,-1
 146 626 l 1,32,-1
 182 627 l 1,0,-1
EndSplineSet
EndChar

StartChar: ograve
Encoding: 242 242 120
Width: 488
Flags: W
LayerCount: 2
Fore
SplineSet
227 414 m 1,0,-1
 226 414 l 1,1,2
 218 391 218 391 200 284 c 0,3,4
 183 183 183 183 183 169 c 0,5,6
 183 138 183 138 213 138 c 0,7,8
 242 138 242 138 256 154 c 0,9,10
 267 166 267 166 267 181 c 0,11,12
 267 185 267 185 266 194 c 1,13,-1
 313 454 l 1,14,15
 304 462 304 462 288 462 c 0,16,17
 269 462 269 462 250 446.5 c 128,-1,18
 231 431 231 431 227 414 c 1,0,-1
171 715 m 1,19,-1
 313 715 l 1,20,-1
 336 619 l 1,21,22
 446 624 446 624 460 512 c 1,23,24
 437 369 437 369 395 130 c 0,25,26
 385 76 385 76 351 37 c 0,27,28
 301 -19 301 -19 212 -19 c 0,29,30
 43 -19 43 -19 37 105 c 0,31,32
 36 115 36 115 37 126 c 0,33,34
 38 139 38 139 38 151 c 128,-1,35
 38 163 38 163 51 250 c 0,36,37
 67 363 67 363 91 460 c 0,38,39
 104 515 104 515 152.5 563.5 c 128,-1,40
 201 612 201 612 249 614 c 1,41,-1
 171 715 l 1,19,-1
EndSplineSet
EndChar

StartChar: divide
Encoding: 247 247 152
Width: 445
Flags: W
LayerCount: 2
Fore
SplineSet
399 294 m 1,0,-1
 385 172 l 1,1,-1
 62 156 l 1,2,-1
 72 268 l 1,3,-1
 399 294 l 1,0,-1
271 10 m 1,4,-1
 133 0 l 1,5,-1
 142 128 l 1,6,-1
 276 133 l 1,7,-1
 271 10 l 1,4,-1
306 320 m 1,8,-1
 172 309 l 1,9,-1
 183 434 l 1,10,-1
 316 439 l 1,11,-1
 306 320 l 1,8,-1
EndSplineSet
EndChar

StartChar: ugrave
Encoding: 249 249 125
Width: 528
Flags: W
LayerCount: 2
Fore
SplineSet
380 757 m 1,0,-1
 402 650 l 1,1,-1
 499 652 l 1,2,-1
 423 141 l 2,3,4
 415 91 415 91 364 51 c 0,5,6
 307 7 307 7 227 7 c 0,7,8
 113 7 113 7 69 78 c 0,9,10
 46 115 46 115 46 166 c 1,11,-1
 104 644 l 1,12,13
 149 644 149 644 255 647 c 1,14,15
 227 422 227 422 215 278 c 1,16,17
 212 256 212 256 212 238 c 0,18,19
 212 167 212 167 256 167 c 0,20,21
 289 167 289 167 298 237 c 2,22,-1
 345 607 l 1,23,-1
 319 607 l 1,24,-1
 274 758 l 1,25,-1
 380 757 l 1,0,-1
EndSplineSet
EndChar

StartChar: uacute
Encoding: 250 250 124
Width: 528
Flags: W
LayerCount: 2
Fore
SplineSet
214 630 m 1,0,-1
 268 758 l 1,1,-1
 389 756 l 1,2,3
 331 682 331 682 272 607 c 1,4,-1
 251 609 l 1,5,6
 227 411 227 411 217 303 c 2,7,-1
 214 273 l 2,8,9
 212 251 212 251 212 233 c 0,10,11
 212 162 212 162 256 162 c 0,12,13
 289 162 289 162 298 232 c 2,14,-1
 353 635 l 1,15,16
 474 635 474 635 500 635 c 1,17,-1
 423 137 l 2,18,19
 415 86 415 86 364 47 c 0,20,21
 307 2 307 2 227 2 c 0,22,23
 113 2 113 2 69 73 c 0,24,25
 46 110 46 110 46 161 c 0,26,27
 46 176 46 176 108 628 c 1,28,-1
 214 630 l 1,0,-1
EndSplineSet
EndChar

StartChar: ucircumflex
Encoding: 251 251 126
Width: 528
Flags: W
LayerCount: 2
Fore
SplineSet
127 632 m 1,0,-1
 135 700 l 1,1,-1
 266 768 l 1,2,-1
 378 718 l 1,3,-1
 341 642 l 1,4,-1
 247 678 l 1,5,-1
 180 632 l 1,6,-1
 253 635 l 1,7,-1
 214 278 l 2,8,9
 212 256 212 256 212 238 c 0,10,11
 212 167 212 167 256 167 c 0,12,13
 289 167 289 167 298 237 c 2,14,-1
 350 635 l 1,15,-1
 499 642 l 1,16,17
 462 378 462 378 423 141 c 0,18,19
 415 91 415 91 364 51 c 0,20,21
 307 7 307 7 227 7 c 0,22,23
 113 7 113 7 69 78 c 0,24,25
 46 115 46 115 46 166 c 1,26,27
 54 231 54 231 107 632 c 1,28,-1
 127 632 l 1,0,-1
EndSplineSet
EndChar

StartChar: udieresis
Encoding: 252 252 127
Width: 558
Flags: W
LayerCount: 2
Fore
SplineSet
423 131 m 0,0,1
 415 80 415 80 364 41 c 0,2,3
 307 -3 307 -3 227 -3 c 0,4,5
 113 -3 113 -3 69 67 c 0,6,7
 46 105 46 105 46 155 c 1,8,9
 61 301 61 301 78 416 c 0,10,11
 91 505 91 505 105 594 c 1,12,-1
 178 593 l 1,13,-1
 180 606 l 1,14,-1
 127 607 l 1,15,-1
 142 707 l 1,16,-1
 282 711 l 1,17,-1
 267 605 l 2,18,19
 266 605 266 605 220 606 c 1,20,21
 220 591 220 591 219 591 c 2,22,-1
 250 591 l 1,23,24
 226 392 226 392 216 290 c 1,25,-1
 215 267 l 1,26,27
 212 245 212 245 212 227 c 0,28,29
 212 156 212 156 256 156 c 0,30,31
 289 156 289 156 298 226 c 2,32,-1
 349 593 l 1,33,-1
 411 594 l 1,34,-1
 412 606 l 1,35,-1
 366 605 l 1,36,-1
 383 711 l 1,37,-1
 522 716 l 1,38,-1
 512 606 l 1,39,-1
 457 606 l 1,40,-1
 456 593 l 1,41,42
 499 593 499 593 494 592 c 1,43,44
 467 417 467 417 423 131 c 0,0,1
EndSplineSet
EndChar

StartChar: ydieresis
Encoding: 255 255 154
Width: 548
Flags: W
LayerCount: 2
Fore
SplineSet
348 695 m 1,0,-1
 481 699 l 1,1,2
 473 644 473 644 473 641 c 1,3,4
 484 638 484 638 554 638 c 1,5,-1
 338 291 l 1,6,-1
 315 4 l 1,7,8
 229 6 229 6 133 -1 c 1,9,-1
 183 363 l 1,10,-1
 43 639 l 1,11,12
 69 639 69 639 103 640 c 1,13,14
 105 649 105 649 115 689 c 1,15,-1
 249 695 l 1,16,-1
 231 599 l 1,17,-1
 276 489 l 1,18,-1
 335 591 l 1,19,-1
 334 590 l 1,20,-1
 348 695 l 1,0,-1
EndSplineSet
EndChar

StartChar: OE
Encoding: 338 338 144
Width: 653
Flags: W
LayerCount: 2
Fore
SplineSet
227 428 m 1,0,-1
 226 428 l 1,1,2
 218 406 218 406 200 298 c 0,3,4
 183 197 183 197 183 183 c 0,5,6
 183 153 183 153 213 153 c 0,7,8
 242 153 242 153 256 169 c 0,9,10
 267 181 267 181 267 195 c 0,11,12
 267 199 267 199 266 208 c 1,13,-1
 313 469 l 1,14,15
 304 476 304 476 288 476 c 0,16,17
 269 476 269 476 250 460.5 c 128,-1,18
 231 445 231 445 227 428 c 1,0,-1
601 501 m 1,19,-1
 467 496 l 1,20,-1
 449 380 l 1,21,-1
 582 384 l 1,22,-1
 562 260 l 1,23,-1
 426 256 l 1,24,-1
 412 140 l 1,25,-1
 543 143 l 1,26,-1
 517 4 l 1,27,28
 472 3 472 3 364 0 c 0,29,30
 266 -3 266 -3 212 -3 c 0,31,32
 43 -3 43 -3 37 120 c 0,33,34
 36 129 36 129 37 141 c 0,35,36
 38 154 38 154 38 153 c 1,37,38
 38 177 38 177 51 265 c 0,39,40
 67 378 67 378 91 474 c 0,41,42
 113 564 113 564 206 606 c 0,43,44
 267 634 267 634 306 632 c 1,45,46
 446 632 446 632 618 634 c 1,47,-1
 601 501 l 1,19,-1
EndSplineSet
EndChar

StartChar: circumflex
Encoding: 710 710 178
Width: 961
Flags: W
LayerCount: 2
Fore
SplineSet
280 656 m 1,0,1
 366 689 366 689 406 710 c 1,2,-1
 525 655 l 1,3,-1
 530 591 l 1,4,-1
 501 588 l 1,5,-1
 400 613 l 1,6,7
 297 595 297 595 258 589 c 1,8,9
 268 622 268 622 280 656 c 1,0,1
EndSplineSet
EndChar

StartChar: ring
Encoding: 730 730 180
Width: 961
Flags: W
LayerCount: 2
Fore
SplineSet
506 597 m 256,0,1
 506 552 506 552 474.5 520 c 128,-1,2
 443 488 443 488 398 488 c 256,3,4
 353 488 353 488 321 520 c 128,-1,5
 289 552 289 552 289 597 c 256,6,7
 289 642 289 642 321 673.5 c 128,-1,8
 353 705 353 705 398 705 c 256,9,10
 443 705 443 705 474.5 673.5 c 128,-1,11
 506 642 506 642 506 597 c 256,0,1
427 598 m 0,12,13
 427 624 427 624 401 624 c 256,14,15
 375 624 375 624 375 598 c 0,16,17
 375 573 375 573 401 573 c 256,18,19
 427 573 427 573 427 598 c 0,12,13
EndSplineSet
EndChar

StartChar: tilde
Encoding: 732 732 179
Width: 604
Flags: W
LayerCount: 2
Fore
SplineSet
243 679 m 1,0,1
 258 690 258 690 292 697 c 0,2,3
 318 702 318 702 331 702 c 0,4,5
 396 702 396 702 430.5 688.5 c 128,-1,6
 465 675 465 675 514 675 c 0,7,8
 529 675 529 675 545 685 c 0,9,10
 556 693 556 693 568 700 c 1,11,-1
 553 582 l 1,12,13
 508 560 508 560 492 560 c 256,14,15
 476 560 476 560 433 576 c 0,16,17
 387 594 387 594 360 594 c 0,18,19
 310 594 310 594 233 570 c 1,20,-1
 243 679 l 1,21,-1
 243 679 l 1,0,1
EndSplineSet
EndChar

StartChar: endash
Encoding: 8211 8211 146
Width: 361
Flags: W
LayerCount: 2
Fore
SplineSet
303 249 m 1,0,-1
 288 116 l 1,1,-1
 61 101 l 1,2,-1
 72 224 l 1,3,-1
 303 249 l 1,0,-1
EndSplineSet
EndChar

StartChar: emdash
Encoding: 8212 8212 147
Width: 783
Flags: W
LayerCount: 2
Fore
SplineSet
715 264 m 1,0,-1
 699 126 l 1,1,-1
 61 101 l 1,2,-1
 72 224 l 1,3,-1
 715 264 l 1,0,-1
EndSplineSet
EndChar

StartChar: quoteleft
Encoding: 8216 8216 150
Width: 258
Flags: W
LayerCount: 2
Fore
SplineSet
73 369 m 1,0,1
 72 387 72 387 59 505 c 0,2,3
 51 583 51 583 53 644 c 1,4,5
 152 638 152 638 196 637 c 1,6,7
 201 498 201 498 200 483 c 1,8,9
 145 478 145 478 144 478 c 2,10,-1
 154 370 l 1,11,12
 71 369 71 369 73 369 c 1,0,1
EndSplineSet
EndChar

StartChar: quotesinglbase
Encoding: 8218 8218 160
Width: 281
Flags: W
LayerCount: 2
Fore
SplineSet
210 -48 m 1,0,1
 196 -88 196 -88 180 -110 c 1,2,3
 134 -116 134 -116 107 -113 c 1,4,-1
 131 5 l 1,5,6
 114 4 114 4 48 4 c 1,7,8
 49 57 49 57 57 152 c 1,9,10
 105 153 105 153 210 160 c 1,11,12
 208 132 208 132 214 46 c 1,13,14
 214 9 214 9 210 -48 c 1,0,1
EndSplineSet
EndChar

StartChar: quotedblleft
Encoding: 8220 8220 148
Width: 452
Flags: W
LayerCount: 2
Fore
SplineSet
73 369 m 1,0,1
 72 387 72 387 59 505 c 0,2,3
 51 583 51 583 53 644 c 1,4,5
 152 638 152 638 196 637 c 1,6,7
 201 498 201 498 200 483 c 1,8,9
 145 478 145 478 144 478 c 2,10,-1
 154 370 l 1,11,12
 71 369 71 369 73 369 c 1,0,1
265 369 m 1,13,14
 264 387 264 387 251 505 c 0,15,16
 243 583 243 583 245 644 c 1,17,18
 344 638 344 638 388 637 c 1,19,20
 393 498 393 498 392 483 c 1,21,22
 337 478 337 478 336 478 c 2,23,-1
 347 370 l 1,24,25
 263 369 263 369 265 369 c 1,13,14
EndSplineSet
EndChar

StartChar: quotedblright
Encoding: 8221 8221 149
Width: 456
Flags: W
LayerCount: 2
Fore
SplineSet
171 359 m 1,0,1
 121 354 121 354 88 358 c 1,2,-1
 112 475 l 1,3,4
 92 475 92 475 80 476 c 128,-1,5
 68 477 68 477 57 477 c 1,6,7
 58 525 58 525 72 622 c 1,8,9
 118 623 118 623 220 630 c 1,10,11
 215 570 215 570 199 494 c 0,12,13
 174 377 174 377 171 359 c 1,0,1
373 359 m 1,14,15
 323 354 323 354 290 358 c 1,16,-1
 313 475 l 1,17,18
 294 475 294 475 282 476 c 128,-1,19
 270 477 270 477 258 477 c 1,20,21
 260 525 260 525 274 622 c 1,22,23
 319 623 319 623 421 630 c 1,24,25
 417 570 417 570 401 494 c 0,26,27
 376 377 376 377 373 359 c 1,14,15
EndSplineSet
EndChar

StartChar: quotedblbase
Encoding: 8222 8222 161
Width: 497
Flags: W
LayerCount: 2
Fore
SplineSet
210 -48 m 1,0,1
 196 -88 196 -88 180 -110 c 1,2,3
 134 -116 134 -116 107 -113 c 1,4,-1
 131 5 l 1,5,6
 114 4 114 4 48 4 c 1,7,8
 49 57 49 57 57 152 c 1,9,10
 105 153 105 153 210 160 c 1,11,12
 208 132 208 132 214 46 c 1,13,14
 214 9 214 9 210 -48 c 1,0,1
431 -48 m 1,15,16
 416 -88 416 -88 401 -110 c 1,17,18
 355 -116 355 -116 328 -113 c 1,19,-1
 352 5 l 1,20,21
 335 4 335 4 269 4 c 1,22,23
 270 57 270 57 278 152 c 1,24,25
 326 153 326 153 431 160 c 1,26,27
 429 133 429 133 435 48 c 1,28,29
 435 10 435 10 431 -48 c 1,15,16
EndSplineSet
EndChar

StartChar: bullet
Encoding: 8226 8226 129
Width: 319
Flags: W
LayerCount: 2
Fore
SplineSet
256 251 m 0,0,1
 256 210 256 210 227 181.5 c 128,-1,2
 198 153 198 153 158 153 c 0,3,4
 117 153 117 153 88.5 181.5 c 128,-1,5
 60 210 60 210 60 251 c 0,6,7
 60 291 60 291 88.5 320 c 128,-1,8
 117 349 117 349 158 349 c 0,9,10
 198 349 198 349 227 320 c 128,-1,11
 256 291 256 291 256 251 c 0,0,1
EndSplineSet
EndChar

StartChar: ellipsis
Encoding: 8230 8230 140
Width: 746
Flags: W
LayerCount: 2
Fore
SplineSet
403 7 m 1,0,-1
 251 -4 l 1,1,-1
 271 141 l 1,2,-1
 423 146 l 1,3,-1
 403 7 l 1,0,-1
190 7 m 1,4,-1
 37 -4 l 1,5,-1
 58 141 l 1,6,-1
 209 146 l 1,7,-1
 190 7 l 1,4,-1
615 7 m 1,8,-1
 462 -4 l 1,9,-1
 482 141 l 1,10,-1
 634 146 l 1,11,-1
 615 7 l 1,8,-1
EndSplineSet
EndChar

StartChar: guilsinglleft
Encoding: 8249 8249 158
Width: 327
Flags: W
LayerCount: 2
Fore
SplineSet
183 173 m 1,0,-1
 268 20 l 1,1,-1
 156 -26 l 1,2,-1
 40 197 l 1,3,-1
 151 383 l 1,4,-1
 275 375 l 1,5,-1
 183 173 l 1,0,-1
EndSplineSet
EndChar

StartChar: guilsinglright
Encoding: 8250 8250 159
Width: 339
Flags: W
LayerCount: 2
Fore
SplineSet
50 375 m 1,0,-1
 174 383 l 1,1,-1
 284 197 l 1,2,-1
 175 -26 l 1,3,-1
 57 20 l 1,4,-1
 141 173 l 1,5,-1
 50 375 l 1,0,-1
EndSplineSet
EndChar

StartChar: Euro
Encoding: 8364 8364 157
Width: 521
Flags: W
LayerCount: 2
Fore
SplineSet
87 408 m 1,0,-1
 140 414 l 1,1,2
 147 453 147 453 161 511 c 1,3,4
 189 575 189 575 253 610 c 1,5,6
 310 640 310 640 377 640 c 0,7,8
 470 640 470 640 520 588 c 1,9,-1
 451 471 l 1,10,11
 419 489 419 489 408 493 c 128,-1,12
 397 497 397 497 367 497 c 0,13,14
 334 497 334 497 313 483.5 c 128,-1,15
 292 470 292 470 290 453 c 1,16,-1
 284 420 l 1,17,-1
 337 424 l 1,18,19
 333 392 333 392 328 344 c 1,20,-1
 271 344 l 1,21,-1
 265 308 l 1,22,-1
 322 308 l 1,23,24
 319 285 319 285 310 230 c 1,25,-1
 253 232 l 1,26,-1
 245 194 l 2,27,28
 240 169 240 169 254 150.5 c 128,-1,29
 268 132 268 132 294 132 c 0,30,31
 376 132 376 132 410 152 c 1,32,-1
 461 39 l 1,33,34
 358 -14 358 -14 253 -14 c 0,35,36
 168 -14 168 -14 126 29 c 0,37,38
 102 53 102 53 89 101 c 1,39,40
 96 140 96 140 109 230 c 1,41,-1
 69 233 l 1,42,-1
 73 300 l 1,43,-1
 127 301 l 1,44,-1
 134 335 l 1,45,-1
 77 335 l 1,46,47
 86 378 86 378 87 408 c 1,0,-1
EndSplineSet
EndChar

StartChar: arrowleft
Encoding: 8592 8592 137
Width: 724
Flags: W
LayerCount: 2
Fore
SplineSet
681 338 m 1,0,-1
 640 263 l 1,1,-1
 677 205 l 1,2,-1
 209 195 l 1,3,-1
 207 73 l 1,4,5
 170 112 170 112 116 177 c 0,6,7
 66 238 66 238 44 259 c 1,8,9
 154 382 154 382 217 449 c 1,10,-1
 208 330 l 1,11,-1
 681 338 l 1,0,-1
EndSplineSet
EndChar

StartChar: arrowup
Encoding: 8593 8593 135
Width: 410
Flags: W
LayerCount: 2
Fore
SplineSet
143 471 m 1,0,-1
 24 461 l 1,1,2
 81 512 81 512 149 566 c 0,3,4
 231 631 231 631 242 641 c 1,5,6
 286 600 286 600 400 471 c 1,7,-1
 278 469 l 1,8,-1
 210 1 l 1,9,-1
 153 38 l 1,10,-1
 78 -3 l 1,11,-1
 143 471 l 1,0,-1
EndSplineSet
EndChar

StartChar: arrowright
Encoding: 8594 8594 136
Width: 724
Flags: W
LayerCount: 2
Fore
SplineSet
44 185 m 1,0,-1
 85 260 l 1,1,-1
 48 317 l 1,2,-1
 515 328 l 1,3,-1
 517 449 l 1,4,5
 555 411 555 411 609 346 c 0,6,7
 659 285 659 285 681 263 c 1,8,9
 571 140 571 140 508 73 c 1,10,-1
 517 193 l 1,11,-1
 44 185 l 1,0,-1
EndSplineSet
EndChar

StartChar: arrowdown
Encoding: 8595 8595 153
Width: 410
Flags: W
LayerCount: 2
Fore
SplineSet
280 167 m 1,0,-1
 400 177 l 1,1,2
 343 126 343 126 275 72 c 0,3,4
 193 6 193 6 182 -3 c 1,5,6
 138 38 138 38 24 167 c 1,7,-1
 145 169 l 1,8,-1
 213 637 l 1,9,-1
 271 599 l 1,10,-1
 346 641 l 1,11,-1
 280 167 l 1,0,-1
EndSplineSet
EndChar

StartChar: arrowleftright
Encoding: 8596 8596 162
Width: 812
Flags: W
LayerCount: 2
Fore
SplineSet
198 320 m 1,0,-1
 592 328 l 1,1,-1
 594 449 l 1,2,3
 632 411 632 411 685 346 c 0,4,5
 736 285 736 285 758 263 c 1,6,7
 714 217 714 217 585 73 c 1,8,-1
 594 193 l 1,9,-1
 200 185 l 1,10,-1
 198 64 l 1,11,12
 160 102 160 102 107 167 c 0,13,14
 56 228 56 228 34 250 c 1,15,16
 78 296 78 296 207 439 c 1,17,-1
 198 320 l 1,0,-1
EndSplineSet
EndChar

StartChar: .notdef
Encoding: 65536 -1 0
Width: 500
Flags: W
LayerCount: 2
Fore
SplineSet
63 0 m 1,0,-1
 63 800 l 1,1,-1
 438 800 l 1,2,-1
 438 0 l 1,3,-1
 63 0 l 1,0,-1
125 63 m 1,4,-1
 375 63 l 1,5,-1
 375 738 l 1,6,-1
 125 738 l 1,7,-1
 125 63 l 1,4,-1
EndSplineSet
EndChar
